<svg id="图层_1" data-name="图层 1" xmlns="http://www.w3.org/2000/svg" xmlns:xlink="http://www.w3.org/1999/xlink" viewBox="0 0 230.84 242.3"><defs><clipPath id="clip-path" transform="translate(0 0)"><rect x="97.68" width="93.16" height="9.32" fill="none"/></clipPath><clipPath id="clip-path-2" transform="translate(0 0)"><rect x="3.87" width="94.12" height="9.32" fill="none"/></clipPath><clipPath id="clip-path-3" transform="translate(0 0)"><rect width="190.84" height="242.3" fill="none"/></clipPath></defs><title>dna_left2</title><path d="M190.84,0H97.68V9.32h93.16Z" transform="translate(0 0)" fill="none"/><g clip-path="url(#clip-path)"><path d="M97.68,4.66h0a4.65,4.65,0,0,0,4.64,4.66H186.2a4.66,4.66,0,0,0,0-9.32H102.32a4.65,4.65,0,0,0-4.64,4.66" transform="translate(0 0)" fill="#50b4ff"/></g><path d="M98,0H3.87V9.32H98Z" transform="translate(0 0)" fill="none"/><g clip-path="url(#clip-path-2)"><path d="M3.87,4.66h0A4.67,4.67,0,0,0,8.51,9.32H93.35a4.66,4.66,0,0,0,0-9.32H8.52A4.67,4.67,0,0,0,3.87,4.66" transform="translate(0 0)" fill="#008bd8"/></g><path d="M190.84,242.3H0V0H190.84Z" transform="translate(0 0)" fill="none"/><g clip-path="url(#clip-path-3)"><path d="M175.79,9.32h-7.68V0h7.68Z" transform="translate(0 0)" fill="#35b5fc"/><path d="M118.49,9.32H110.8V0h7.69Z" transform="translate(0 0)" fill="#35b5fc"/><path d="M67.9,9.32H64.06V0H67.9Z" transform="translate(0 0)" fill="#fff"/><path d="M57.66,9.32H52.21V0h5.45Z" transform="translate(0 0)" fill="#35b5fc"/><path d="M21.16,9.32h-4.8V0h4.8Z" transform="translate(0 0)" fill="#f60"/><path d="M11.88,9.32H9.63V0h2.25Z" transform="translate(0 0)" fill="#35b5fc"/><path d="M47.41,9.32h-15V0h15Z" transform="translate(0 0)" fill="#35b5fc"/><path d="M183.8,9.32h-3.53V0h3.53Z" transform="translate(0 0)" fill="#006ed3"/><path d="M166.83,9.32h-2.56V0h2.56Z" transform="translate(0 0)" fill="#006ed3"/><path d="M162.67,9.32h-4.49V0h4.49Z" transform="translate(0 0)" fill="#006ed3"/><path d="M151.46,9.32h-25V0h25Z" transform="translate(0 0)" fill="#006ed3"/><path d="M101.12,0a3.46,3.46,0,0,0-3.44,3.46v2.4a3.46,3.46,0,0,0,3.44,3.46h.4V0Z" transform="translate(0 0)" fill="#35b5fc"/><path d="M98,5.86V3.46A3.47,3.47,0,0,0,94.55,0H77.83V9.32H94.55A3.47,3.47,0,0,0,98,5.86" transform="translate(0 0)" fill="#35b5fc"/><path d="M97.68,17.69h0a4.67,4.67,0,0,0,4.64,4.66H186.2a4.67,4.67,0,0,0,0-9.33H102.32a4.67,4.67,0,0,0-4.64,4.67" transform="translate(0 0)" fill="#aedeff"/><path d="M3.87,17.69h0a4.67,4.67,0,0,0,4.64,4.66H93.35a4.67,4.67,0,0,0,0-9.33H8.51a4.68,4.68,0,0,0-4.64,4.67" transform="translate(0 0)" fill="#008bd8"/><path d="M175.79,22.35h-7.68V13h7.68Z" transform="translate(0 0)" fill="#35b5fc"/><path d="M118.49,22.35H110.8V13h7.69Z" transform="translate(0 0)" fill="#35b5fc"/><path d="M67.9,22.35H64.06V13H67.9Z" transform="translate(0 0)" fill="#fff"/><path d="M57.66,22.35H52.21V13h5.45Z" transform="translate(0 0)" fill="#35b5fc"/><path d="M21.16,22.35h-4.8V13h4.8Z" transform="translate(0 0)" fill="#aedeff"/><path d="M108.56,22.35h-4.8V13h4.8Z" transform="translate(0 0)" fill="#f60"/><path d="M11.88,22.35H9.63V13h2.25Z" transform="translate(0 0)" fill="#35b5fc"/><path d="M47.41,22.35h-15V13h15Z" transform="translate(0 0)" fill="#35b5fc"/><path d="M183.8,22.35h-3.53V13h3.53Z" transform="translate(0 0)" fill="#006ed3"/><path d="M166.83,22.35h-2.56V13h2.56Z" transform="translate(0 0)" fill="#006ed3"/><path d="M162.67,22.35h-4.49V13h4.49Z" transform="translate(0 0)" fill="#f60"/><path d="M151.46,22.35h-25V13h25Z" transform="translate(0 0)" fill="#50b4ff"/><path d="M101.12,13a3.46,3.46,0,0,0-3.44,3.46v2.4a3.46,3.46,0,0,0,3.44,3.47h.4V13Z" transform="translate(0 0)" fill="#35b5fc"/><path d="M98,18.89v-2.4A3.47,3.47,0,0,0,94.55,13H77.83v9.33H94.55A3.47,3.47,0,0,0,98,18.89" transform="translate(0 0)" fill="#35b5fc"/><path d="M112.72,41.32h0A4.67,4.67,0,0,0,117.37,46h64.35a4.66,4.66,0,0,0,0-9.32H117.37a4.67,4.67,0,0,0-4.65,4.66" transform="translate(0 0)" fill="#aedeff"/><path d="M3.87,41.32h0A4.66,4.66,0,0,0,8.51,46H108.4a4.66,4.66,0,0,0,0-9.32H8.52a4.67,4.67,0,0,0-4.65,4.66" transform="translate(0 0)" fill="#aedeff"/><path d="M130.65,46h-9.92V36.66h9.92Z" transform="translate(0 0)" fill="#35b5fc"/><path d="M78.79,46H65.66V36.66H78.79Z" transform="translate(0 0)" fill="#fff"/><path d="M61.18,46H49.65V36.66H61.18Z" transform="translate(0 0)" fill="#35b5fc"/><path d="M21.16,46h-4.8V36.66h4.8Z" transform="translate(0 0)" fill="#aedeff"/><path d="M16.68,46H14.44V36.66h2.24Z" transform="translate(0 0)" fill="#35b5fc"/><path d="M33.33,46H31.08V36.66h2.25Z" transform="translate(0 0)" fill="#35b5fc"/><path d="M27.24,46H22.76V36.66h4.48Z" transform="translate(0 0)" fill="#35b5fc"/><path d="M44.53,46h-9V36.66h9Z" transform="translate(0 0)" fill="#008bd8"/><path d="M178.67,46h-4.16V36.66h4.16Z" transform="translate(0 0)" fill="#35b5fc"/><path d="M167.79,46H162V36.66h5.76Z" transform="translate(0 0)" fill="#006ed3"/><path d="M156.58,46h-16V36.66h16Z" transform="translate(0 0)" fill="#006ed3"/><path d="M140.58,46h-3.85V36.66h3.85Z" transform="translate(0 0)" fill="#35b5fc"/><path d="M143.46,46h-3.52V36.66h3.52Z" transform="translate(0 0)" fill="#50b4ff"/><path d="M107.28,46h-3.84V36.66h3.84Z" transform="translate(0 0)" fill="#35b5fc"/><path d="M89.67,46H86.79V36.66h2.88Z" transform="translate(0 0)" fill="#35b5fc"/><path d="M98.32,46H92.23V36.66h6.09Z" transform="translate(0 0)" fill="#006ed3"/><path d="M112.72,54.34h0A4.68,4.68,0,0,0,117.37,59h64.35a4.67,4.67,0,0,0,0-9.33H117.37a4.68,4.68,0,0,0-4.65,4.66" transform="translate(0 0)" fill="#aedeff"/><path d="M3.87,54.34h0A4.68,4.68,0,0,0,8.51,59H108.4a4.67,4.67,0,0,0,0-9.33H8.52a4.68,4.68,0,0,0-4.65,4.66" transform="translate(0 0)" fill="#aedeff"/><path d="M130.65,59h-9.92V49.68h9.92Z" transform="translate(0 0)" fill="#35b5fc"/><path d="M78.79,59H65.66V49.68H78.79Z" transform="translate(0 0)" fill="#fff"/><path d="M61.18,59H49.65V49.68H61.18Z" transform="translate(0 0)" fill="#35b5fc"/><path d="M21.16,59h-4.8V49.68h4.8Z" transform="translate(0 0)" fill="#aedeff"/><path d="M16.68,59H14.44V49.68h2.24Z" transform="translate(0 0)" fill="#35b5fc"/><path d="M33.33,59H31.08V49.68h2.25Z" transform="translate(0 0)" fill="#35b5fc"/><path d="M27.24,59H22.76V49.68h4.48Z" transform="translate(0 0)" fill="#35b5fc"/><path d="M44.53,59h-9V49.68h9Z" transform="translate(0 0)" fill="#008bd8"/><path d="M178.67,59h-4.16V49.68h4.16Z" transform="translate(0 0)" fill="#35b5fc"/><path d="M167.79,59H162V49.68h5.76Z" transform="translate(0 0)" fill="#006ed3"/><path d="M156.58,59h-16V49.68h16Z" transform="translate(0 0)" fill="#006ed3"/><path d="M140.58,59h-3.85V49.68h3.85Z" transform="translate(0 0)" fill="#35b5fc"/><path d="M170,59h-3.52V49.68H170Z" transform="translate(0 0)" fill="#f60"/><path d="M107.28,59h-3.84V49.68h3.84Z" transform="translate(0 0)" fill="#35b5fc"/><path d="M89.67,59H86.79V49.68h2.88Z" transform="translate(0 0)" fill="#35b5fc"/><path d="M98.32,59H92.23V49.68h6.09Z" transform="translate(0 0)" fill="#006ed3"/><path d="M77.19,78h0a4.66,4.66,0,0,0,4.63,4.66h70.76a4.66,4.66,0,0,0,0-9.32H81.82A4.66,4.66,0,0,0,77.18,78" transform="translate(0 0)" fill="#aedeff"/><path d="M3.87,78h0a4.67,4.67,0,0,0,4.64,4.66H72.86a4.66,4.66,0,0,0,0-9.32H8.52A4.67,4.67,0,0,0,3.87,78" transform="translate(0 0)" fill="#aedeff"/><path d="M106.64,82.64H95.44V73.32h11.2Z" transform="translate(0 0)" fill="#35b5fc"/><path d="M65.34,82.64H59.26V73.32h6.08Z" transform="translate(0 0)" fill="#fff"/><path d="M55.42,82.64H48.69V73.32h6.73Z" transform="translate(0 0)" fill="#35b5fc"/><path d="M35.57,82.64H28.2V73.32h7.37Z" transform="translate(0 0)" fill="#35b5fc"/><path d="M24,82.64h-4.8V73.32H24Z" transform="translate(0 0)" fill="#ededed"/><path d="M18.28,82.64H13.8V73.32h4.48Z" transform="translate(0 0)" fill="#35b5fc"/><path d="M41,82.64H39.09V73.32H41Z" transform="translate(0 0)" fill="#35b5fc"/><path d="M138,82.64H126.17V73.32H138Z" transform="translate(0 0)" fill="#006ed3"/><path d="M121.05,82.64h-3.2V73.32h3.2Z" transform="translate(0 0)" fill="#008bd8"/><path d="M140.58,82.64h-3.2V73.32h3.2Z" transform="translate(0 0)" fill="#f60"/><path d="M114,82.64h-3.2V73.32H114Z" transform="translate(0 0)" fill="#f60"/><path d="M153.78,82.64a3.46,3.46,0,0,0,3.44-3.46v-2.4a3.46,3.46,0,0,0-3.44-3.46h-.4v9.32Z" transform="translate(0 0)" fill="#35b5fc"/><path d="M7.31,73.32a3.46,3.46,0,0,0-3.44,3.46v2.4a3.46,3.46,0,0,0,3.44,3.46h.4V73.32Z" transform="translate(0 0)" fill="#35b5fc"/><path d="M77.19,76.78v2.4a3.46,3.46,0,0,0,3.44,3.46h9.68V73.32H80.63a3.46,3.46,0,0,0-3.44,3.46" transform="translate(0 0)" fill="#35b5fc"/><path d="M77.19,91h0a4.67,4.67,0,0,0,4.63,4.67h70.76a4.67,4.67,0,0,0,0-9.33H81.82A4.67,4.67,0,0,0,77.18,91" transform="translate(0 0)" fill="#aedeff"/><path d="M3.87,91h0a4.68,4.68,0,0,0,4.64,4.67H72.86a4.67,4.67,0,0,0,0-9.33H8.52A4.68,4.68,0,0,0,3.87,91" transform="translate(0 0)" fill="#aedeff"/><path d="M106.64,95.66H95.44V86.34h11.2Z" transform="translate(0 0)" fill="#35b5fc"/><path d="M65.34,95.66H59.26V86.34h6.08Z" transform="translate(0 0)" fill="#fff"/><path d="M55.42,95.66H48.69V86.34h6.73Z" transform="translate(0 0)" fill="#35b5fc"/><path d="M35.57,95.66H28.2V86.34h7.37Z" transform="translate(0 0)" fill="#35b5fc"/><path d="M24,95.66h-4.8V86.34H24Z" transform="translate(0 0)" fill="#ededed"/><path d="M18.28,95.66H13.8V86.34h4.48Z" transform="translate(0 0)" fill="#35b5fc"/><path d="M41,95.66H39.09V86.34H41Z" transform="translate(0 0)" fill="#35b5fc"/><path d="M138,95.66H126.17V86.34H138Z" transform="translate(0 0)" fill="#006ed3"/><path d="M121.05,95.66h-3.2V86.34h3.2Z" transform="translate(0 0)" fill="#008bd8"/><path d="M153.78,95.67a3.46,3.46,0,0,0,3.44-3.46V89.8a3.46,3.46,0,0,0-3.44-3.46h-.4v9.33Z" transform="translate(0 0)" fill="#35b5fc"/><path d="M7.31,86.34A3.46,3.46,0,0,0,3.87,89.8v2.4a3.46,3.46,0,0,0,3.44,3.46h.4V86.34Z" transform="translate(0 0)" fill="#35b5fc"/><path d="M77.19,89.8v2.4a3.47,3.47,0,0,0,3.44,3.47h9.68V86.34H80.63a3.46,3.46,0,0,0-3.44,3.46" transform="translate(0 0)" fill="#35b5fc"/><path d="M106.29,114.64h0a4.66,4.66,0,0,0,4.64,4.66h36.18a4.66,4.66,0,0,0,0-9.32H110.93a4.66,4.66,0,0,0-4.64,4.66" transform="translate(0 0)" fill="#aedeff"/><path d="M4.16,114.64h0A4.66,4.66,0,0,0,8.8,119.3H102a4.66,4.66,0,0,0,0-9.32H8.8a4.66,4.66,0,0,0-4.64,4.66" transform="translate(0 0)" fill="#aedeff"/><path d="M128.7,119.3h-2.56V110h2.56Z" transform="translate(0 0)" fill="#35b5fc"/><path d="M117.49,119.3h-6.4V110h6.4Z" transform="translate(0 0)" fill="#35b5fc"/><path d="M99.57,119.3H86.76V110H99.57Z" transform="translate(0 0)" fill="#35b5fc"/><path d="M81.64,119.3H75.88V110h5.76Z" transform="translate(0 0)" fill="#ededed"/><path d="M74,119.3H69.79V110H74Z" transform="translate(0 0)" fill="#35b5fc"/><path d="M68.51,119.3H58.59V110h9.92Z" transform="translate(0 0)" fill="#35b5fc"/><path d="M37.78,119.3H34.9V110h2.88Z" transform="translate(0 0)" fill="#35b5fc"/><path d="M30.74,119.3h-9V110h9Z" transform="translate(0 0)" fill="#35b5fc"/><path d="M16.33,119.3H11.85V110h4.48Z" transform="translate(0 0)" fill="#35b5fc"/><path d="M55.39,119.3H40.66V110H55.39Z" transform="translate(0 0)" fill="#006ed3"/><path d="M141.19,119.3h-8V110h8Z" transform="translate(0 0)" fill="#006ed3"/><path d="M106.29,127.66h0a4.68,4.68,0,0,0,4.64,4.67h36.18a4.67,4.67,0,0,0,0-9.33H110.93a4.67,4.67,0,0,0-4.64,4.66" transform="translate(0 0)" fill="#aedeff"/><path d="M4.16,127.66h0a4.68,4.68,0,0,0,4.64,4.67H102a4.67,4.67,0,0,0,0-9.33H8.8a4.67,4.67,0,0,0-4.64,4.66" transform="translate(0 0)" fill="#aedeff"/><path d="M128.7,132.32h-2.56V123h2.56Z" transform="translate(0 0)" fill="#35b5fc"/><path d="M117.49,132.32h-6.4V123h6.4Z" transform="translate(0 0)" fill="#35b5fc"/><path d="M99.57,132.32H86.76V123H99.57Z" transform="translate(0 0)" fill="#35b5fc"/><path d="M81.64,132.32H75.88V123h5.76Z" transform="translate(0 0)" fill="#ededed"/><path d="M74,132.32H69.79V123H74Z" transform="translate(0 0)" fill="#35b5fc"/><path d="M68.51,132.32H58.59V123h9.92Z" transform="translate(0 0)" fill="#35b5fc"/><path d="M37.78,132.32H34.9V123h2.88Z" transform="translate(0 0)" fill="#35b5fc"/><path d="M30.74,132.32h-9V123h9Z" transform="translate(0 0)" fill="#35b5fc"/><path d="M16.33,132.32H11.85V123h4.48Z" transform="translate(0 0)" fill="#35b5fc"/><path d="M55.39,132.32H40.66V123H55.39Z" transform="translate(0 0)" fill="#006ed3"/><path d="M141.19,132.32h-8V123h8Z" transform="translate(0 0)" fill="#006ed3"/><path d="M102.45,151.3h0a4.66,4.66,0,0,0,4.64,4.66h34.26a4.66,4.66,0,0,0,0-9.32H107.09a4.65,4.65,0,0,0-4.64,4.66" transform="translate(0 0)" fill="#aedeff"/><path d="M4.16,151.3h0A4.67,4.67,0,0,0,8.8,156H98.13a4.66,4.66,0,0,0,0-9.32H8.81a4.67,4.67,0,0,0-4.65,4.66" transform="translate(0 0)" fill="#aedeff"/><path d="M128.06,156H114.29v-9.32h13.77Z" transform="translate(0 0)" fill="#006ed3"/><path d="M94.77,156H89v-9.32h5.77Z" transform="translate(0 0)" fill="#35b5fc"/><path d="M54.11,156H42.58v-9.32H54.11Z" transform="translate(0 0)" fill="#ededed"/><path d="M80.68,156H69.79v-9.32H80.68Z" transform="translate(0 0)" fill="#35b5fc"/><path d="M67.87,156H54.1v-9.32H67.87Z" transform="translate(0 0)" fill="#006ed3"/><path d="M26.25,156H21.77v-9.32h4.48Z" transform="translate(0 0)" fill="#35b5fc"/><path d="M18.57,156H12.49v-9.32h6.08Z" transform="translate(0 0)" fill="#35b5fc"/><path d="M133.18,156h-2.56v-9.32h2.56Z" transform="translate(0 0)" fill="#006ed3"/><path d="M105.89,146.64a3.46,3.46,0,0,0-3.44,3.46v2.4a3.46,3.46,0,0,0,3.44,3.46h.4v-9.32Z" transform="translate(0 0)" fill="#35b5fc"/><path d="M76.52,156H74.6v-9.32h1.92Z" transform="translate(0 0)" fill="#f60"/><path d="M49.62,156H45.78v-9.32h3.84Z" transform="translate(0 0)" fill="#f60"/><path d="M102.45,164.32h0a4.65,4.65,0,0,0,4.64,4.66h34.26a4.66,4.66,0,0,0,0-9.32H107.09a4.66,4.66,0,0,0-4.64,4.66" transform="translate(0 0)" fill="#aedeff"/><path d="M4.16,164.32h0A4.67,4.67,0,0,0,8.8,169H98.13a4.66,4.66,0,0,0,0-9.32H8.81a4.68,4.68,0,0,0-4.65,4.66" transform="translate(0 0)" fill="#aedeff"/><path d="M128.06,169H114.29v-9.32h13.77Z" transform="translate(0 0)" fill="#006ed3"/><path d="M94.77,169H89v-9.32h5.77Z" transform="translate(0 0)" fill="#35b5fc"/><path d="M54.11,169H42.58v-9.32H54.11Z" transform="translate(0 0)" fill="#ededed"/><path d="M80.68,169H69.79v-9.32H80.68Z" transform="translate(0 0)" fill="#35b5fc"/><path d="M67.87,169H54.1v-9.32H67.87Z" transform="translate(0 0)" fill="#006ed3"/><path d="M26.25,169H21.77v-9.32h4.48Z" transform="translate(0 0)" fill="#35b5fc"/><path d="M18.57,169H12.49v-9.32h6.08Z" transform="translate(0 0)" fill="#35b5fc"/><path d="M133.18,169h-2.56v-9.32h2.56Z" transform="translate(0 0)" fill="#006ed3"/><path d="M105.89,159.66a3.46,3.46,0,0,0-3.44,3.46v2.4a3.46,3.46,0,0,0,3.44,3.46h.4v-9.32Z" transform="translate(0 0)" fill="#35b5fc"/><path d="M111.09,169h-4.8v-9.32h4.8Z" transform="translate(0 0)" fill="#50b4ff"/><path d="M13.77,169H11.21v-9.32h2.56Z" transform="translate(0 0)" fill="#50b4ff"/><path d="M3.2,188h0a4.67,4.67,0,0,0,4.64,4.66H80.2a4.67,4.67,0,0,0,0-9.33H7.84A4.67,4.67,0,0,0,3.2,188" transform="translate(0 0)" fill="#aedeff"/><path d="M73,192.62H69.47v-9.33H73Z" transform="translate(0 0)" fill="#006ed3"/><path d="M66,192.62H58.27v-9.33H66Z" transform="translate(0 0)" fill="#35b5fc"/><path d="M56.35,192.62h-3.2v-9.33h3.2Z" transform="translate(0 0)" fill="#006ed3"/><path d="M29.77,192.62h-7v-9.33h7Z" transform="translate(0 0)" fill="#35b5fc"/><path d="M33.62,192.62H29.77v-9.33h3.85Z" transform="translate(0 0)" fill="#f60"/><path d="M50.58,192.62H36.18v-9.33h14.4Z" transform="translate(0 0)" fill="#006ed3"/><path d="M13.45,192.62H10.57v-9.33h2.88Z" transform="translate(0 0)" fill="#008bd8"/><path d="M81.4,183.29a3.47,3.47,0,0,1,3.44,3.47v2.4a3.46,3.46,0,0,1-3.44,3.46H76.2v-9.33Z" transform="translate(0 0)" fill="#35b5fc"/><path d="M84.52,188h0a4.67,4.67,0,0,0,4.65,4.66h48.65a4.67,4.67,0,0,0,0-9.33H89.17A4.68,4.68,0,0,0,84.52,188" transform="translate(0 0)" fill="#aedeff"/><path d="M125.82,192.62h-11.2v-9.33h11.2Z" transform="translate(0 0)" fill="#35b5fc"/><path d="M105,192.62h-1.6v-9.33H105Z" transform="translate(0 0)" fill="#008bd8"/><path d="M135.42,192.62H133.5v-9.33h1.92Z" transform="translate(0 0)" fill="#006ed3"/><path d="M99.57,192.62H89.32v-9.33H99.57Z" transform="translate(0 0)" fill="#006ed3"/><path d="M123.26,192.62h-3.84v-9.33h3.84Z" transform="translate(0 0)" fill="#50b4ff"/><path d="M3.2,201h0a4.65,4.65,0,0,0,4.64,4.66H80.2a4.66,4.66,0,0,0,0-9.32H7.84A4.65,4.65,0,0,0,3.2,201" transform="translate(0 0)" fill="#aedeff"/><path d="M73,205.64H69.47v-9.32H73Z" transform="translate(0 0)" fill="#006ed3"/><path d="M66,205.64H58.27v-9.32H66Z" transform="translate(0 0)" fill="#35b5fc"/><path d="M56.35,205.64h-3.2v-9.32h3.2Z" transform="translate(0 0)" fill="#006ed3"/><path d="M29.77,205.64h-7v-9.32h7Z" transform="translate(0 0)" fill="#35b5fc"/><path d="M33.62,205.64H29.77v-9.32h3.85Z" transform="translate(0 0)" fill="#f60"/><path d="M50.58,205.64H36.18v-9.32h14.4Z" transform="translate(0 0)" fill="#006ed3"/><path d="M13.45,205.64H10.57v-9.32h2.88Z" transform="translate(0 0)" fill="#008bd8"/><path d="M81.4,196.32a3.46,3.46,0,0,1,3.44,3.46v2.4a3.46,3.46,0,0,1-3.44,3.46H76.2v-9.32Z" transform="translate(0 0)" fill="#35b5fc"/><path d="M84.52,201h0a4.66,4.66,0,0,0,4.65,4.66h48.65a4.66,4.66,0,0,0,0-9.32H89.17A4.67,4.67,0,0,0,84.52,201" transform="translate(0 0)" fill="#aedeff"/><path d="M125.82,205.64h-11.2v-9.32h11.2Z" transform="translate(0 0)" fill="#35b5fc"/><path d="M105,205.64h-1.6v-9.32H105Z" transform="translate(0 0)" fill="#008bd8"/><path d="M135.42,205.64H133.5v-9.32h1.92Z" transform="translate(0 0)" fill="#008bd8"/><path d="M99.57,205.64H89.32v-9.32H99.57Z" transform="translate(0 0)" fill="#006ed3"/><path d="M125.5,205.64h-3.84v-9.32h3.84Z" transform="translate(0 0)" fill="#50b4ff"/><path d="M138.31,205.64h-6.4v-9.32h6.4Z" transform="translate(0 0)" fill="#f60"/><path d="M0,224.62H0a4.67,4.67,0,0,0,4.64,4.66H70.91a4.67,4.67,0,0,0,0-9.33H4.64A4.68,4.68,0,0,0,0,224.62" transform="translate(0 0)" fill="#aedeff"/><path d="M64.35,229.28H49.62V220H64.35Z" transform="translate(0 0)" fill="#006ed3"/><path d="M66.27,229.28H61.15V220h5.12Z" transform="translate(0 0)" fill="#50b4ff"/><path d="M47.7,229.28H40V220H47.7Z" transform="translate(0 0)" fill="#35b5fc"/><path d="M18.57,229.28H15.69V220h2.88Z" transform="translate(0 0)" fill="#35b5fc"/><path d="M32.33,229.28h-4.8V220h4.8Z" transform="translate(0 0)" fill="#008bd8"/><path d="M11.21,229.28H8.64V220h2.57Z" transform="translate(0 0)" fill="#008bd8"/><path d="M75.24,224.62h0a4.67,4.67,0,0,0,4.64,4.66h39.7a4.67,4.67,0,0,0,0-9.33H79.88a4.68,4.68,0,0,0-4.65,4.67" transform="translate(0 0)" fill="#aedeff"/><path d="M116.22,229.28H102.77V220h13.45Z" transform="translate(0 0)" fill="#35b5fc"/><path d="M92.52,229.28H88.36V220h4.16Z" transform="translate(0 0)" fill="#006ed3"/><path d="M83.56,229.28H80V220h3.52Z" transform="translate(0 0)" fill="#006ed3"/><path d="M0,237.64H0a4.66,4.66,0,0,0,4.64,4.66H70.91a4.66,4.66,0,0,0,0-9.32H4.64A4.66,4.66,0,0,0,0,237.64" transform="translate(0 0)" fill="#aedeff"/><path d="M64.35,242.3H49.62V233H64.35Z" transform="translate(0 0)" fill="#006ed3"/><path d="M72,242.3H66V233H72Z" transform="translate(0 0)" fill="#50b4ff"/><path d="M47.7,242.3H40V233H47.7Z" transform="translate(0 0)" fill="#35b5fc"/><path d="M18.57,242.3H15.69V233h2.88Z" transform="translate(0 0)" fill="#35b5fc"/><path d="M32.33,242.3h-4.8V233h4.8Z" transform="translate(0 0)" fill="#008bd8"/><path d="M11.21,242.3H8.64V233h2.57Z" transform="translate(0 0)" fill="#008bd8"/><path d="M75.24,237.64h0a4.65,4.65,0,0,0,4.64,4.66h39.7a4.66,4.66,0,0,0,0-9.32H79.88a4.67,4.67,0,0,0-4.65,4.66" transform="translate(0 0)" fill="#aedeff"/><path d="M116.22,242.3H102.77V233h13.45Z" transform="translate(0 0)" fill="#35b5fc"/><path d="M92.52,242.3H88.36V233h4.16Z" transform="translate(0 0)" fill="#006ed3"/><path d="M83.56,242.3H80V233h3.52Z" transform="translate(0 0)" fill="#006ed3"/></g><path d="M128.84,11.38,146.4,29h80.44" transform="translate(0 0)" fill="none" stroke="#fff" stroke-miterlimit="10"/><path d="M38.84,95.38,56.4,113H226.84" transform="translate(0 0)" fill="none" stroke="#fff" stroke-miterlimit="10"/><path d="M89.84,201.38,107.4,219H226.84" transform="translate(0 0)" fill="none" stroke="#fff" stroke-miterlimit="10"/><circle cx="228.34" cy="28.88" r="2.5" fill="#fff"/><circle cx="228.34" cy="112.88" r="2.5" fill="#fff"/><circle cx="228.34" cy="218.88" r="2.5" fill="#fff"/></svg>