<svg id="图层_1" data-name="图层 1" xmlns="http://www.w3.org/2000/svg" viewBox="0 0 37 23.13"><title>gs_head2</title><path d="M23.53,23.12a2.83,2.83,0,0,1-2.06-.81,2.06,2.06,0,0,1-.62-1.48l.33-19.08C21.2.77,22.23,0,23.53,0s2.33.77,2.35,1.75l.33,19.08a2,2,0,0,1-.61,1.48A2.85,2.85,0,0,1,23.53,23.12Zm0-3.53a1.81,1.81,0,0,0-1.53.75.92.92,0,0,0-.15.51.94.94,0,0,0,.12.49,1.39,1.39,0,0,0,.21.27,2,2,0,0,0,2.71,0,1.35,1.35,0,0,0,.2-.27,1,1,0,0,0,.13-.49,1,1,0,0,0-.16-.51,1.8,1.8,0,0,0-1.53-.75Zm0-4.53c-.86,0-1.59.52-1.6,1.13l-.05,2.89a3.09,3.09,0,0,1,3.31,0l-.05-2.89c0-.61-.75-1.12-1.61-1.12ZM22.08,7.27,22,14.5a3,3,0,0,1,1.57-.43,2.94,2.94,0,0,1,1.58.43L25,7.27a2.82,2.82,0,0,1-1.45.37,3,3,0,0,1-1.45-.36Zm1.45-2.36a1.85,1.85,0,0,0-1.13.35l-.12.11a1.28,1.28,0,0,0-.15.25h0s0,.09,0,.13h0a.65.65,0,0,0,.2.44l0,0h0a2,2,0,0,0,2.34,0h.05a.65.65,0,0,0,.2-.45h0V5.68h0l0,0h0a.71.71,0,0,0-.1-.14l-.12-.12a1.86,1.86,0,0,0-1.14-.35Zm0-3.91c-.79,0-1.35.4-1.35.76l-.05,2.49a3.07,3.07,0,0,1,2.8,0l0-2.49c0-.36-.57-.76-1.36-.76ZM14.24,23.12c-1.33,0-2.37-.67-2.43-1.56l-1.2-19A2.1,2.1,0,0,1,11.18,1a3.35,3.35,0,0,1,2.37-1h.16c1.65,0,2.95,1,3,2.34l.08,11.9c0,1.06-1.15,1.92-2.63,2H14a3.28,3.28,0,0,1-1.54-.35l.14,2.2a3.33,3.33,0,0,1,1.58-.42h.13c1.41,0,2.48.73,2.48,1.7l0,2c0,.94-1,1.68-2.44,1.72Zm-1.48-2.27,0,.64c0,.27.57.64,1.44.64h.08c.9,0,1.48-.45,1.48-.72v-.66a3.31,3.31,0,0,1-1.51.38h-.12A3.45,3.45,0,0,1,12.76,20.85Zm1.54-2.21h-.1a2.23,2.23,0,0,0-1.15.31.91.91,0,0,0-.24.2.41.41,0,0,0-.14.3c0,.17.2.36.5.5a2.61,2.61,0,0,0,1,.2h.09a2.49,2.49,0,0,0,1.07-.27c.29-.16.47-.35.47-.53s-.16-.33-.42-.47a2.34,2.34,0,0,0-1.07-.25ZM11.72,4.28l.63,10.08c0,.42.69.86,1.63.86h.1c1,0,1.67-.54,1.67-1L15.68,4.14a3.52,3.52,0,0,1-2,.66h-.15A3.36,3.36,0,0,1,11.72,4.28ZM13.7,1h-.12a2.41,2.41,0,0,0-1.66.7A1.4,1.4,0,0,0,11.7,2a.92.92,0,0,0-.1.49,1.12,1.12,0,0,0,.18.5,2.18,2.18,0,0,0,1.78.79h.12a2.22,2.22,0,0,0,1.84-.93,1,1,0,0,0,.15-.52,1,1,0,0,0-.14-.48A2.12,2.12,0,0,0,13.7,1ZM34.36,23.09c-1.22,0-2.18-.63-2.28-1.49L29.74,2.72a2.05,2.05,0,0,1,.45-1.52A3.21,3.21,0,0,1,32.34.07a3,3,0,0,1,.43,0,2.47,2.47,0,0,1,2.67,2l.91,11.11c.09,1.08-1,2.05-2.43,2.2l-.38,0a3.22,3.22,0,0,1-1.26-.25l.28,2.28a3.26,3.26,0,0,1,1.51-.53l.37,0c1.28,0,2.26.67,2.34,1.6L37,21.12c.08,1-.93,1.82-2.29,1.95Zm-1.44-2.78.14,1.17c0,.29.57.61,1.3.61h.25C35.44,22,36,21.55,36,21.2L35.9,20a3.31,3.31,0,0,1-1.46.5h-.36A3.06,3.06,0,0,1,32.92,20.31Zm1.52-2.44-.27,0a2.14,2.14,0,0,0-1.16.45l-.13.14a.49.49,0,0,0-.14.38.7.7,0,0,0,.43.47,1.93,1.93,0,0,0,.92.2h.25a2.22,2.22,0,0,0,1.12-.42.71.71,0,0,0,.33-.54.66.66,0,0,0-.37-.46,2,2,0,0,0-1-.23ZM30.94,4.32l1.15,9.29c.06.45.69.79,1.45.79h.27c1-.1,1.58-.68,1.54-1.13l-.76-9.35a3.39,3.39,0,0,1-1.77.73,3,3,0,0,1-.42,0A3.1,3.1,0,0,1,30.94,4.32ZM32.77,1l-.32,0A2.25,2.25,0,0,0,31,1.82a1.2,1.2,0,0,0-.16.27.9.9,0,0,0,.13,1,1.91,1.91,0,0,0,1.46.59l.3,0a2.12,2.12,0,0,0,1.63-1,.89.89,0,0,0,.11-.53.9.9,0,0,0-.17-.47A1.86,1.86,0,0,0,32.77,1Zm-29.84,22a3.44,3.44,0,0,1-.46,0,3,3,0,0,1-2-1.16A2.23,2.23,0,0,1,0,20.18l.67-4a2.41,2.41,0,0,1,2.52-1.82,3.55,3.55,0,0,1,.46,0,3.14,3.14,0,0,1,1.57.69l.27-2.34A2.84,2.84,0,0,1,4.34,13a2.32,2.32,0,0,1-.46,0,2.81,2.81,0,0,1-1.9-1,1.76,1.76,0,0,1-.34-1.33L3.18,1.41A1.91,1.91,0,0,1,5.23.08a2.28,2.28,0,0,1,.45,0c1.26.17,2.16,1,2.06,1.93L5.59,21A2.55,2.55,0,0,1,2.93,23.05ZM2.68,19.2a1.8,1.8,0,0,0-1.46.66,1.11,1.11,0,0,0-.18,1,1.72,1.72,0,0,0,.21.43A2.06,2.06,0,0,0,2.6,22l.32,0a1.73,1.73,0,0,0,1.51-.74,1.07,1.07,0,0,0,.1-1A1.89,1.89,0,0,0,3,19.22Zm0-1a3.55,3.55,0,0,1,.46,0A3.1,3.1,0,0,1,4.81,19l.25-2.19c.07-.66-.61-1.31-1.52-1.44a1.15,1.15,0,0,0-.32,0,1.44,1.44,0,0,0-1.54,1l-.36,2.17a3,3,0,0,1,1.36-.3ZM4,9.94a1.74,1.74,0,0,0-1,.32.76.76,0,0,0-.31.47.74.74,0,0,0,.12.5v0h0l0,.05A1.82,1.82,0,0,0,4,12a1.13,1.13,0,0,0,.32,0,1.62,1.62,0,0,0,1.11-.37.7.7,0,0,0,.25-.45.81.81,0,0,0-.17-.54A1.83,1.83,0,0,0,4.3,10a1.66,1.66,0,0,0-.32,0Zm0-1,.45,0a3,3,0,0,1,1.44.59l.87-7.63c0-.31-.47-.74-1.2-.84a1.62,1.62,0,0,0-.31,0c-.61,0-1,.25-1.07.5L2.89,9.15A2.92,2.92,0,0,1,4,9Z" transform="translate(0 0)" fill="#fff"/></svg>