<svg xmlns="http://www.w3.org/2000/svg" xmlns:xlink="http://www.w3.org/1999/xlink" viewBox="0 0 310 65"><defs><clipPath id="a"><rect class="a" width="310" height="65"/></clipPath><clipPath id="b"><path class="b" d="M0,0H-114.377V11.5H0Z" transform="translate(0 -0.1) rotate(180)"/></clipPath><clipPath id="c"><path class="b" d="M0,0H-115.556V11.5H0Z" transform="translate(0.132 -0.1) rotate(180)"/></clipPath></defs><g transform="translate(-30 -366)"><rect class="a" width="310" height="65" transform="translate(30 366)"/><g class="c" transform="translate(30 366)"><g transform="translate(5 12)"><g transform="translate(0.134 0.64) rotate(90)"><path class="b" d="M0,0H-114.377V11.5H0Z" transform="translate(0 -0.1) rotate(-180)"/><g class="d"><path class="e" d="M-114.377,5.749h0a5.741,5.741,0,0,0,5.7,5.749H-5.7A5.741,5.741,0,0,0,0,5.749,5.741,5.741,0,0,0-5.7,0H-108.677a5.741,5.741,0,0,0-5.7,5.749" transform="translate(0 -0.099) rotate(-180)"/></g></g><g transform="translate(0.134 114.747) rotate(90)"><path class="b" d="M0,0H-115.556V11.5H0Z" transform="translate(0.132 -0.1) rotate(-180)"/><g class="f"><path class="g" d="M-115.556,5.749h0a5.741,5.741,0,0,0,5.7,5.749H-5.7A5.742,5.742,0,0,0,0,5.749,5.742,5.742,0,0,0-5.7,0H-109.857a5.741,5.741,0,0,0-5.7,5.749" transform="translate(0.132 -0.099) rotate(-180)"/></g></g><path class="h" d="M0,11.5H-9.433V0H0Z" transform="translate(0.234 19.038) rotate(-90)"/><path class="h" d="M0,11.5H-9.433V0H0Z" transform="translate(0.234 89.549) rotate(-90)"/><path class="a" d="M0,11.5H-4.716V0H0Z" transform="translate(0.234 151.784) rotate(-90)"/><path class="h" d="M0,11.5H-6.682V0H0Z" transform="translate(0.234 164.391) rotate(-90)"/><path class="i" d="M0,11.5H-5.9V0H0Z" transform="translate(0.234 209.297) rotate(-90)"/><path class="h" d="M0,11.5H-2.751V0H0Z" transform="translate(0.234 220.718) rotate(-90)"/><path class="h" d="M0,11.5H-18.473V0H0Z" transform="translate(0.234 177.01) rotate(-90)"/><path class="j" d="M0,11.5H-4.323V0H0Z" transform="translate(0.234 9.185) rotate(-90)"/><path class="j" d="M0,11.5H-3.145V0H0Z" transform="translate(0.234 30.061) rotate(-90)"/><path class="j" d="M0,11.5H-5.5V0H0Z" transform="translate(0.234 35.184) rotate(-90)"/><path class="j" d="M0,11.5H-30.658V0H0Z" transform="translate(0.234 48.999) rotate(-90)"/><path class="h" d="M-.486,0A4.262,4.262,0,0,0-4.717,4.268V7.231A4.261,4.261,0,0,0-.486,11.5H0V0Z" transform="translate(0.234 110.421) rotate(-90)"/><path class="h" d="M0,7.231V4.268A4.262,4.262,0,0,0-4.23,0H-24.762V11.5H-4.23A4.26,4.26,0,0,0,0,7.231" transform="translate(0.234 114.777) rotate(-90)"/><path class="k" d="M-114.377,5.749h0a5.741,5.741,0,0,0,5.7,5.749H-5.7A5.741,5.741,0,0,0,0,5.749,5.741,5.741,0,0,0-5.7,0H-108.677a5.741,5.741,0,0,0-5.7,5.749" transform="translate(16.26 0.64) rotate(-90)"/><path class="g" d="M-115.556,5.749h0a5.741,5.741,0,0,0,5.7,5.749H-5.7A5.742,5.742,0,0,0,0,5.749,5.742,5.742,0,0,0-5.7,0H-109.857a5.741,5.741,0,0,0-5.7,5.749" transform="translate(16.26 114.878) rotate(-90)"/><path class="h" d="M0,11.5H-9.433V0H0Z" transform="translate(16.26 19.038) rotate(-90)"/><path class="h" d="M0,11.5H-9.433V0H0Z" transform="translate(16.26 89.549) rotate(-90)"/><path class="a" d="M0,11.5H-4.716V0H0Z" transform="translate(16.26 151.784) rotate(-90)"/><path class="h" d="M0,11.5H-6.682V0H0Z" transform="translate(16.26 164.391) rotate(-90)"/><path class="k" d="M0,11.5H-5.9V0H0Z" transform="translate(16.26 209.297) rotate(-90)"/><path class="i" d="M0,11.5H-5.9V0H0Z" transform="translate(16.26 101.758) rotate(-90)"/><path class="h" d="M0,11.5H-2.751V0H0Z" transform="translate(16.26 220.718) rotate(-90)"/><path class="h" d="M0,11.5H-18.473V0H0Z" transform="translate(16.26 177.01) rotate(-90)"/><path class="j" d="M0,11.5H-4.323V0H0Z" transform="translate(16.26 9.185) rotate(-90)"/><path class="j" d="M0,11.5H-3.145V0H0Z" transform="translate(16.26 30.061) rotate(-90)"/><path class="i" d="M0,11.5H-5.5V0H0Z" transform="translate(16.26 35.184) rotate(-90)"/><path class="e" d="M0,11.5H-30.658V0H0Z" transform="translate(16.26 48.999) rotate(-90)"/><path class="h" d="M-.486,0A4.262,4.262,0,0,0-4.717,4.268V7.231A4.261,4.261,0,0,0-.486,11.5H0V0Z" transform="translate(16.26 110.421) rotate(-90)"/><path class="h" d="M0,7.231V4.268A4.262,4.262,0,0,0-4.23,0H-24.762V11.5H-4.23A4.26,4.26,0,0,0,0,7.231" transform="translate(16.26 114.777) rotate(-90)"/><path class="k" d="M-90.4,5.749h0A5.741,5.741,0,0,0-84.7,11.5h79A5.741,5.741,0,0,0,0,5.749,5.741,5.741,0,0,0-5.7,0h-79a5.741,5.741,0,0,0-5.7,5.749" transform="translate(45.341 6.128) rotate(-90)"/><path class="k" d="M-134.029,5.749h0a5.741,5.741,0,0,0,5.7,5.749H-5.7A5.742,5.742,0,0,0,0,5.749,5.742,5.742,0,0,0-5.7,0H-128.33a5.741,5.741,0,0,0-5.7,5.749" transform="translate(45.341 96.384) rotate(-90)"/><path class="h" d="M0,11.5H-12.184V0H0Z" transform="translate(45.341 74.584) rotate(-90)"/><path class="a" d="M0,11.5H-16.115V0H0Z" transform="translate(45.341 138.403) rotate(-90)"/><path class="h" d="M0,11.5H-14.15V0H0Z" transform="translate(45.341 160.066) rotate(-90)"/><path class="k" d="M0,11.5H-5.9V0H0Z" transform="translate(45.341 209.297) rotate(-90)"/><path class="h" d="M0,11.5H-2.751V0H0Z" transform="translate(45.341 214.808) rotate(-90)"/><path class="h" d="M0,11.5H-2.751V0H0Z" transform="translate(45.341 194.325) rotate(-90)"/><path class="h" d="M0,11.5H-5.5V0H0Z" transform="translate(45.341 201.813) rotate(-90)"/><path class="g" d="M0,11.5H-11.006V0H0Z" transform="translate(45.341 180.546) rotate(-90)"/><path class="h" d="M0,11.5H-5.109V0H0Z" transform="translate(45.341 15.488) rotate(-90)"/><path class="j" d="M0,11.5H-7.075V0H0Z" transform="translate(45.341 28.883) rotate(-90)"/><path class="j" d="M0,11.5H-19.652V0H0Z" transform="translate(45.341 42.685) rotate(-90)"/><path class="h" d="M0,11.5H-4.717V0H0Z" transform="translate(45.341 62.364) rotate(-90)"/><path class="e" d="M0,11.5H-4.323V0H0Z" transform="translate(45.341 58.819) rotate(-90)"/><path class="h" d="M0,11.5H-4.716V0H0Z" transform="translate(45.341 103.331) rotate(-90)"/><path class="h" d="M0,11.5H-3.537V0H0Z" transform="translate(45.341 124.996) rotate(-90)"/><path class="j" d="M0,11.5H-7.467V0H0Z" transform="translate(45.341 114.365) rotate(-90)"/><path class="k" d="M-90.4,5.749h0A5.741,5.741,0,0,0-84.7,11.5h79A5.741,5.741,0,0,0,0,5.749,5.741,5.741,0,0,0-5.7,0h-79a5.741,5.741,0,0,0-5.7,5.749" transform="translate(61.368 6.128) rotate(-90)"/><path class="k" d="M-134.029,5.749h0a5.741,5.741,0,0,0,5.7,5.749H-5.7A5.742,5.742,0,0,0,0,5.749,5.742,5.742,0,0,0-5.7,0H-128.33a5.741,5.741,0,0,0-5.7,5.749" transform="translate(61.368 96.384) rotate(-90)"/><path class="h" d="M0,11.5H-12.184V0H0Z" transform="translate(61.368 74.584) rotate(-90)"/><path class="a" d="M0,11.5H-16.115V0H0Z" transform="translate(61.368 138.403) rotate(-90)"/><path class="h" d="M0,11.5H-14.15V0H0Z" transform="translate(61.368 160.066) rotate(-90)"/><path class="k" d="M0,11.5H-5.9V0H0Z" transform="translate(61.368 209.297) rotate(-90)"/><path class="h" d="M0,11.5H-2.751V0H0Z" transform="translate(61.368 214.808) rotate(-90)"/><path class="h" d="M0,11.5H-2.751V0H0Z" transform="translate(61.368 194.325) rotate(-90)"/><path class="h" d="M0,11.5H-5.5V0H0Z" transform="translate(61.368 201.813) rotate(-90)"/><path class="g" d="M0,11.5H-11.006V0H0Z" transform="translate(61.368 180.546) rotate(-90)"/><path class="h" d="M0,11.5H-5.109V0H0Z" transform="translate(61.368 15.488) rotate(-90)"/><path class="j" d="M0,11.5H-7.075V0H0Z" transform="translate(61.368 28.883) rotate(-90)"/><path class="j" d="M0,11.5H-19.652V0H0Z" transform="translate(61.368 42.685) rotate(-90)"/><path class="h" d="M0,11.5H-4.717V0H0Z" transform="translate(61.368 62.364) rotate(-90)"/><path class="i" d="M0,11.5H-4.323V0H0Z" transform="translate(61.368 26.123) rotate(-90)"/><path class="h" d="M0,11.5H-4.716V0H0Z" transform="translate(61.368 103.331) rotate(-90)"/><path class="h" d="M0,11.5H-3.537V0H0Z" transform="translate(61.368 124.996) rotate(-90)"/><path class="j" d="M0,11.5H-7.467V0H0Z" transform="translate(61.368 114.365) rotate(-90)"/><path class="k" d="M-98.262,5.749h0a5.741,5.741,0,0,0,5.7,5.749H-5.7A5.741,5.741,0,0,0,0,5.749,5.741,5.741,0,0,0-5.7,0H-92.562a5.741,5.741,0,0,0-5.7,5.749" transform="translate(90.448 21.459) rotate(-90)"/><path class="k" d="M-90.4,5.749h0A5.741,5.741,0,0,0-84.7,11.5h79A5.741,5.741,0,0,0,0,5.749,5.741,5.741,0,0,0-5.7,0h-79a5.741,5.741,0,0,0-5.7,5.749" transform="translate(90.448 119.536) rotate(-90)"/><path class="h" d="M0,11.5H-13.756V0H0Z" transform="translate(90.449 83.604) rotate(-90)"/><path class="a" d="M0,11.5H-7.467V0H0Z" transform="translate(90.449 134.413) rotate(-90)"/><path class="h" d="M0,11.5H-8.254V0H0Z" transform="translate(90.449 146.626) rotate(-90)"/><path class="h" d="M0,11.5H-9.04V0H0Z" transform="translate(90.449 171.049) rotate(-90)"/><path class="l" d="M0,11.5H-5.9V0H0Z" transform="translate(90.449 185.227) rotate(-90)"/><path class="h" d="M0,11.5H-5.5V0H0Z" transform="translate(90.449 192.317) rotate(-90)"/><path class="h" d="M0,11.5H-2.358V0H0Z" transform="translate(90.449 164.345) rotate(-90)"/><path class="j" d="M0,11.5H-14.542V0H0Z" transform="translate(90.449 45.002) rotate(-90)"/><path class="g" d="M0,11.5H-3.931V0H0Z" transform="translate(90.449 65.867) rotate(-90)"/><path class="i" d="M0,11.5H-3.931V0H0Z" transform="translate(90.449 41.838) rotate(-90)"/><path class="i" d="M0,11.5H-3.931V0H0Z" transform="translate(90.449 74.533) rotate(-90)"/><path class="h" d="M-4.231,11.5A4.261,4.261,0,0,0,0,7.231V4.267A4.261,4.261,0,0,0-4.231,0h-.486V11.5Z" transform="translate(90.449 21.355) rotate(-90)"/><path class="h" d="M-.486,0a4.261,4.261,0,0,0-4.23,4.268V7.231A4.26,4.26,0,0,0-.486,11.5H0V0Z" transform="translate(90.449 205.315) rotate(-90)"/><path class="h" d="M-16.115,4.267V7.23a4.261,4.261,0,0,0,4.23,4.268H0V0H-11.885a4.26,4.26,0,0,0-4.23,4.267" transform="translate(90.449 103.697) rotate(-90)"/><path class="k" d="M-98.262,5.749h0a5.741,5.741,0,0,0,5.7,5.749H-5.7A5.741,5.741,0,0,0,0,5.749,5.741,5.741,0,0,0-5.7,0H-92.562a5.741,5.741,0,0,0-5.7,5.749" transform="translate(106.474 21.459) rotate(-90)"/><path class="k" d="M-90.4,5.749h0A5.741,5.741,0,0,0-84.7,11.5h79A5.741,5.741,0,0,0,0,5.749,5.741,5.741,0,0,0-5.7,0h-79a5.741,5.741,0,0,0-5.7,5.749" transform="translate(106.474 119.536) rotate(-90)"/><path class="h" d="M0,11.5H-13.756V0H0Z" transform="translate(106.475 83.604) rotate(-90)"/><path class="a" d="M0,11.5H-7.467V0H0Z" transform="translate(106.475 134.413) rotate(-90)"/><path class="h" d="M0,11.5H-8.254V0H0Z" transform="translate(106.475 146.626) rotate(-90)"/><path class="h" d="M0,11.5H-9.04V0H0Z" transform="translate(106.475 171.049) rotate(-90)"/><path class="l" d="M0,11.5H-5.9V0H0Z" transform="translate(106.475 185.227) rotate(-90)"/><path class="h" d="M0,11.5H-5.5V0H0Z" transform="translate(106.475 192.317) rotate(-90)"/><path class="h" d="M0,11.5H-2.358V0H0Z" transform="translate(106.475 164.345) rotate(-90)"/><path class="j" d="M0,11.5H-14.542V0H0Z" transform="translate(106.475 45.002) rotate(-90)"/><path class="g" d="M0,11.5H-3.931V0H0Z" transform="translate(106.475 65.867) rotate(-90)"/><path class="h" d="M-4.231,11.5A4.261,4.261,0,0,0,0,7.231V4.267A4.261,4.261,0,0,0-4.231,0h-.486V11.5Z" transform="translate(106.475 21.355) rotate(-90)"/><path class="h" d="M-.486,0a4.26,4.26,0,0,0-4.23,4.267V7.231A4.26,4.26,0,0,0-.486,11.5H0V0Z" transform="translate(106.475 205.315) rotate(-90)"/><path class="h" d="M-16.115,4.267V7.23a4.261,4.261,0,0,0,4.23,4.268H0V0H-11.885a4.26,4.26,0,0,0-4.23,4.267" transform="translate(106.475 103.697) rotate(-90)"/><path class="k" d="M-55.812,5.75h0a5.741,5.741,0,0,0,5.7,5.749H-5.7A5.741,5.741,0,0,0,0,5.75,5.742,5.742,0,0,0-5.7,0H-50.113a5.742,5.742,0,0,0-5.7,5.75" transform="translate(135.555 28.145) rotate(-90)"/><path class="k" d="M-125.775,5.75h0a5.741,5.741,0,0,0,5.7,5.749H-5.7A5.741,5.741,0,0,0,0,5.75,5.742,5.742,0,0,0-5.7,0H-120.075a5.742,5.742,0,0,0-5.7,5.75" transform="translate(135.555 83.766) rotate(-90)"/><path class="h" d="M0,11.5H-3.144V0H0Z" transform="translate(135.555 56.449) rotate(-90)"/><path class="h" d="M0,11.5H-7.861V0H0Z" transform="translate(135.555 70.242) rotate(-90)"/><path class="h" d="M0,11.5H-15.722V0H0Z" transform="translate(135.555 92.31) rotate(-90)"/><path class="l" d="M0,11.5H-7.075V0H0Z" transform="translate(135.555 114.359) rotate(-90)"/><path class="h" d="M0,11.5H-5.11V0H0Z" transform="translate(135.555 123.812) rotate(-90)"/><path class="h" d="M0,11.5H-12.184V0H0Z" transform="translate(135.555 130.516) rotate(-90)"/><path class="h" d="M0,11.5H-3.537V0H0Z" transform="translate(135.555 168.323) rotate(-90)"/><path class="h" d="M0,11.5H-11.005V0H0Z" transform="translate(135.555 176.997) rotate(-90)"/><path class="h" d="M0,11.5H-5.5V0H0Z" transform="translate(135.555 194.717) rotate(-90)"/><path class="j" d="M0,11.5H-18.08V0H0Z" transform="translate(135.555 146.674) rotate(-90)"/><path class="j" d="M0,11.5H-9.827V0H0Z" transform="translate(135.555 41.093) rotate(-90)"/><path class="k" d="M-55.812,5.75h0a5.741,5.741,0,0,0,5.7,5.749H-5.7A5.741,5.741,0,0,0,0,5.75,5.741,5.741,0,0,0-5.7,0H-50.113a5.741,5.741,0,0,0-5.7,5.75" transform="translate(151.581 28.145) rotate(-90)"/><path class="k" d="M-125.775,5.75h0a5.741,5.741,0,0,0,5.7,5.749H-5.7A5.741,5.741,0,0,0,0,5.75,5.741,5.741,0,0,0-5.7,0H-120.075a5.741,5.741,0,0,0-5.7,5.75" transform="translate(151.581 83.766) rotate(-90)"/><path class="h" d="M0,11.5H-3.144V0H0Z" transform="translate(151.581 56.449) rotate(-90)"/><path class="h" d="M0,11.5H-7.861V0H0Z" transform="translate(151.581 70.242) rotate(-90)"/><path class="h" d="M0,11.5H-15.722V0H0Z" transform="translate(151.581 92.31) rotate(-90)"/><path class="l" d="M0,11.5H-7.075V0H0Z" transform="translate(151.581 114.359) rotate(-90)"/><path class="h" d="M0,11.5H-5.11V0H0Z" transform="translate(151.581 123.812) rotate(-90)"/><path class="h" d="M0,11.5H-12.184V0H0Z" transform="translate(151.581 130.516) rotate(-90)"/><path class="h" d="M0,11.5H-3.537V0H0Z" transform="translate(151.581 168.323) rotate(-90)"/><path class="h" d="M0,11.5H-11.005V0H0Z" transform="translate(151.581 176.997) rotate(-90)"/><path class="h" d="M0,11.5H-5.5V0H0Z" transform="translate(151.581 194.717) rotate(-90)"/><path class="j" d="M0,11.5H-18.08V0H0Z" transform="translate(151.581 146.674) rotate(-90)"/><path class="j" d="M0,11.5H-9.827V0H0Z" transform="translate(151.581 41.093) rotate(-90)"/><path class="k" d="M-53.455,5.749h0a5.741,5.741,0,0,0,5.7,5.749H-5.7A5.742,5.742,0,0,0,0,5.749,5.742,5.742,0,0,0-5.7,0H-47.755a5.741,5.741,0,0,0-5.7,5.749" transform="translate(180.663 31.128) rotate(-90)"/><path class="k" d="M-121.059,5.749h0a5.741,5.741,0,0,0,5.7,5.749H-5.7A5.742,5.742,0,0,0,0,5.749,5.742,5.742,0,0,0-5.7,0h-109.66a5.741,5.741,0,0,0-5.7,5.749" transform="translate(180.663 84.382) rotate(-90)"/><path class="j" d="M0,11.5H-16.9V0H0Z" transform="translate(180.663 53.147) rotate(-90)"/><path class="h" d="M0,11.5H-7.075V0H0Z" transform="translate(180.663 94.103) rotate(-90)"/><path class="l" d="M0,11.5H-14.15V0H0Z" transform="translate(180.663 144.139) rotate(-90)"/><path class="h" d="M0,11.5H-13.364V0H0Z" transform="translate(180.663 111.443) rotate(-90)"/><path class="j" d="M0,11.5H-16.9V0H0Z" transform="translate(180.663 127.204) rotate(-90)"/><path class="h" d="M0,11.5H-5.5V0H0Z" transform="translate(180.663 178.401) rotate(-90)"/><path class="h" d="M0,11.5H-7.467V0H0Z" transform="translate(180.663 187.857) rotate(-90)"/><path class="j" d="M0,11.5H-3.144V0H0Z" transform="translate(180.663 46.83) rotate(-90)"/><path class="h" d="M-.486,0A4.261,4.261,0,0,0-4.717,4.267V7.231A4.261,4.261,0,0,0-.486,11.5H0V0Z" transform="translate(180.663 79.92) rotate(-90)"/><path class="i" d="M0,11.5H-2.358V0H0Z" transform="translate(180.663 116.552) rotate(-90)"/><path class="i" d="M0,11.5H-4.717V0H0Z" transform="translate(180.663 149.643) rotate(-90)"/><path class="k" d="M-53.455,5.749h0a5.741,5.741,0,0,0,5.7,5.749H-5.7A5.742,5.742,0,0,0,0,5.749,5.742,5.742,0,0,0-5.7,0H-47.755a5.741,5.741,0,0,0-5.7,5.749" transform="translate(196.689 31.128) rotate(-90)"/><path class="k" d="M-121.059,5.749h0a5.741,5.741,0,0,0,5.7,5.749H-5.7A5.742,5.742,0,0,0,0,5.749,5.742,5.742,0,0,0-5.7,0h-109.66a5.741,5.741,0,0,0-5.7,5.749" transform="translate(196.689 84.382) rotate(-90)"/><path class="j" d="M0,11.5H-16.9V0H0Z" transform="translate(196.689 53.147) rotate(-90)"/><path class="h" d="M0,11.5H-7.075V0H0Z" transform="translate(196.689 94.103) rotate(-90)"/><path class="l" d="M0,11.5H-14.15V0H0Z" transform="translate(196.689 144.139) rotate(-90)"/><path class="h" d="M0,11.5H-13.364V0H0Z" transform="translate(196.689 111.443) rotate(-90)"/><path class="j" d="M0,11.5H-16.9V0H0Z" transform="translate(196.689 127.204) rotate(-90)"/><path class="h" d="M0,11.5H-5.5V0H0Z" transform="translate(196.689 178.401) rotate(-90)"/><path class="h" d="M0,11.5H-7.467V0H0Z" transform="translate(196.689 187.857) rotate(-90)"/><path class="j" d="M0,11.5H-3.144V0H0Z" transform="translate(196.689 46.83) rotate(-90)"/><path class="h" d="M-.486,0A4.261,4.261,0,0,0-4.717,4.267V7.231A4.261,4.261,0,0,0-.486,11.5H0V0Z" transform="translate(196.689 79.92) rotate(-90)"/><path class="e" d="M0,11.5H-5.9V0H0Z" transform="translate(196.689 74.013) rotate(-90)"/><path class="e" d="M0,11.5H-3.145V0H0Z" transform="translate(196.689 193.761) rotate(-90)"/><path class="k" d="M-100.227,5.749h0a5.741,5.741,0,0,0,5.7,5.75H-5.7A5.742,5.742,0,0,0,0,5.749,5.742,5.742,0,0,0-5.7,0H-94.528a5.741,5.741,0,0,0-5.7,5.749" transform="translate(225.77 104.366) rotate(-90)"/><path class="j" d="M0,11.5H-4.323V0H0Z" transform="translate(225.77 118.835) rotate(-90)"/><path class="h" d="M0,11.5H-9.434V0H0Z" transform="translate(225.77 127.506) rotate(-90)"/><path class="j" d="M0,11.5H-3.931V0H0Z" transform="translate(225.77 139.318) rotate(-90)"/><path class="h" d="M0,11.5H-8.647V0H0Z" transform="translate(225.77 172.018) rotate(-90)"/><path class="i" d="M0,11.5H-4.717V0H0Z" transform="translate(225.77 167.287) rotate(-90)"/><path class="j" d="M0,11.5H-17.687V0H0Z" transform="translate(225.77 146.424) rotate(-90)"/><path class="g" d="M0,11.5H-3.537V0H0Z" transform="translate(225.77 192.103) rotate(-90)"/><path class="h" d="M-4.23,0A4.261,4.261,0,0,1,0,4.268V7.231A4.261,4.261,0,0,1-4.23,11.5h-6.382V0Z" transform="translate(225.77 104.267) rotate(-90)"/><path class="k" d="M-71.142,5.749h0a5.741,5.741,0,0,0,5.7,5.75H-5.7A5.741,5.741,0,0,0,0,5.749,5.741,5.741,0,0,0-5.7,0H-65.442a5.741,5.741,0,0,0-5.7,5.749" transform="translate(225.77 33.429) rotate(-90)"/><path class="h" d="M0,11.5H-13.756V0H0Z" transform="translate(225.77 53.848) rotate(-90)"/><path class="g" d="M0,11.5H-1.965V0H0Z" transform="translate(225.77 79.44) rotate(-90)"/><path class="j" d="M0,11.5H-2.358V0H0Z" transform="translate(225.77 42.018) rotate(-90)"/><path class="j" d="M0,11.5H-12.578V0H0Z" transform="translate(225.77 86.149) rotate(-90)"/><path class="e" d="M0,11.5H-4.717V0H0Z" transform="translate(225.77 56.99) rotate(-90)"/><path class="k" d="M-100.227,5.749h0a5.741,5.741,0,0,0,5.7,5.75H-5.7A5.742,5.742,0,0,0,0,5.749,5.742,5.742,0,0,0-5.7,0H-94.528a5.741,5.741,0,0,0-5.7,5.749" transform="translate(241.796 104.366) rotate(-90)"/><path class="j" d="M0,11.5H-4.323V0H0Z" transform="translate(241.796 118.835) rotate(-90)"/><path class="h" d="M0,11.5H-9.434V0H0Z" transform="translate(241.796 127.506) rotate(-90)"/><path class="j" d="M0,11.5H-3.931V0H0Z" transform="translate(241.796 139.318) rotate(-90)"/><path class="h" d="M0,11.5H-8.647V0H0Z" transform="translate(241.796 172.018) rotate(-90)"/><path class="i" d="M0,11.5H-4.717V0H0Z" transform="translate(241.796 167.287) rotate(-90)"/><path class="j" d="M0,11.5H-17.687V0H0Z" transform="translate(241.796 146.424) rotate(-90)"/><path class="g" d="M0,11.5H-3.537V0H0Z" transform="translate(241.796 192.103) rotate(-90)"/><path class="h" d="M-4.23,0A4.261,4.261,0,0,1,0,4.268V7.231A4.261,4.261,0,0,1-4.23,11.5h-6.382V0Z" transform="translate(241.796 104.267) rotate(-90)"/><path class="k" d="M-71.142,5.749h0a5.741,5.741,0,0,0,5.7,5.75H-5.7A5.741,5.741,0,0,0,0,5.749,5.741,5.741,0,0,0-5.7,0H-65.442a5.741,5.741,0,0,0-5.7,5.749" transform="translate(241.796 33.429) rotate(-90)"/><path class="h" d="M0,11.5H-13.756V0H0Z" transform="translate(241.796 53.848) rotate(-90)"/><path class="g" d="M0,11.5H-1.965V0H0Z" transform="translate(241.796 79.44) rotate(-90)"/><path class="g" d="M0,11.5H-2.358V0H0Z" transform="translate(241.796 42.018) rotate(-90)"/><path class="j" d="M0,11.5H-12.578V0H0Z" transform="translate(241.796 86.149) rotate(-90)"/><path class="e" d="M0,11.5H-4.716V0H0Z" transform="translate(241.796 54.232) rotate(-90)"/><path class="i" d="M0,11.5H-7.861V0H0Z" transform="translate(241.796 38.479) rotate(-90)"/><path class="k" d="M-92.759,5.749h0a5.741,5.741,0,0,0,5.7,5.749H-5.7A5.741,5.741,0,0,0,0,5.749,5.741,5.741,0,0,0-5.7,0H-87.06a5.741,5.741,0,0,0-5.7,5.749" transform="translate(270.877 99.362) rotate(-90)"/><path class="j" d="M0,11.5H-18.08V0H0Z" transform="translate(270.878 113.066) rotate(-90)"/><path class="e" d="M0,11.5H-6.289V0H0Z" transform="translate(270.878 110.689) rotate(-90)"/><path class="h" d="M0,11.5H-9.433V0H0Z" transform="translate(270.878 133.54) rotate(-90)"/><path class="h" d="M0,11.5H-3.537V0H0Z" transform="translate(270.878 169.38) rotate(-90)"/><path class="g" d="M0,11.5H-5.9V0H0Z" transform="translate(270.878 152.445) rotate(-90)"/><path class="g" d="M0,11.5H-3.144V0H0Z" transform="translate(270.878 178.44) rotate(-90)"/><path class="k" d="M-60.136,5.749h0a5.741,5.741,0,0,0,5.7,5.749H-5.7A5.742,5.742,0,0,0,0,5.749,5.742,5.742,0,0,0-5.7,0H-54.437a5.741,5.741,0,0,0-5.7,5.749" transform="translate(270.877 39.449) rotate(-90)"/><path class="h" d="M0,11.5H-16.509V0H0Z" transform="translate(270.878 49.249) rotate(-90)"/><path class="j" d="M0,11.5H-5.109V0H0Z" transform="translate(270.878 78.387) rotate(-90)"/><path class="j" d="M0,11.5H-4.323V0H0Z" transform="translate(270.878 89.416) rotate(-90)"/><path class="k" d="M-92.759,5.749h0a5.741,5.741,0,0,0,5.7,5.749H-5.7A5.741,5.741,0,0,0,0,5.749,5.741,5.741,0,0,0-5.7,0H-87.06a5.741,5.741,0,0,0-5.7,5.749" transform="translate(286.903 99.362) rotate(-90)"/><path class="j" d="M0,11.5H-18.08V0H0Z" transform="translate(286.904 113.066) rotate(-90)"/><path class="e" d="M0,11.5H-7.467V0H0Z" transform="translate(286.904 103.6) rotate(-90)"/><path class="h" d="M0,11.5H-9.433V0H0Z" transform="translate(286.904 133.54) rotate(-90)"/><path class="h" d="M0,11.5H-3.537V0H0Z" transform="translate(286.904 169.38) rotate(-90)"/><path class="g" d="M0,11.5H-5.9V0H0Z" transform="translate(286.904 152.445) rotate(-90)"/><path class="g" d="M0,11.5H-3.144V0H0Z" transform="translate(286.904 178.44) rotate(-90)"/><path class="k" d="M-60.136,5.749h0a5.741,5.741,0,0,0,5.7,5.749H-5.7A5.742,5.742,0,0,0,0,5.749,5.742,5.742,0,0,0-5.7,0H-54.437a5.741,5.741,0,0,0-5.7,5.749" transform="translate(286.903 39.449) rotate(-90)"/><path class="h" d="M0,11.5H-16.509V0H0Z" transform="translate(286.904 49.249) rotate(-90)"/><path class="j" d="M0,11.5H-5.109V0H0Z" transform="translate(286.904 78.387) rotate(-90)"/><path class="j" d="M0,11.5H-4.323V0H0Z" transform="translate(286.904 89.416) rotate(-90)"/></g></g></g></svg>
