<svg id="图层_1" data-name="图层 1" xmlns="http://www.w3.org/2000/svg" xmlns:xlink="http://www.w3.org/1999/xlink" viewBox="0 0 310 242.44"><defs><clipPath id="clip-path" transform="translate(0 0)"><rect width="310" height="65" fill="none"/></clipPath><clipPath id="clip-path-2" transform="translate(0 0)"><rect x="5.23" y="12.64" width="11.5" height="114.38" fill="none"/></clipPath><clipPath id="clip-path-3" transform="translate(0 0)"><rect x="5.23" y="126.88" width="11.5" height="115.56" fill="none"/></clipPath></defs><title>dna_bottom2</title><rect width="310" height="65" fill="#fff"/><g clip-path="url(#clip-path)"><path d="M5.23,12.64V127h11.5V12.64Z" transform="translate(0 0)" fill="none"/><g clip-path="url(#clip-path-2)"><path d="M11,127h0a5.75,5.75,0,0,0,5.75-5.7v-103a5.75,5.75,0,0,0-11.5,0v103A5.75,5.75,0,0,0,11,127" transform="translate(0 0)" fill="#50b4ff"/></g><path d="M5.23,126.88V242.43h11.5V126.88Z" transform="translate(0 0)" fill="none"/><g clip-path="url(#clip-path-3)"><path d="M11,242.43h0a5.73,5.73,0,0,0,5.75-5.7V132.58a5.75,5.75,0,0,0-11.5,0V236.74a5.75,5.75,0,0,0,5.75,5.7" transform="translate(0 0)" fill="#008bd8"/></g><path d="M16.73,31v9.43H5.23V31Z" transform="translate(0 0)" fill="#35b5fc"/><path d="M16.73,101.55V111H5.23v-9.43Z" transform="translate(0 0)" fill="#35b5fc"/><path d="M16.73,163.78v4.72H5.23v-4.72Z" transform="translate(0 0)" fill="#fff"/><path d="M16.73,176.39v6.68H5.23v-6.68Z" transform="translate(0 0)" fill="#35b5fc"/><path d="M16.73,221.3v5.9H5.23v-5.9Z" transform="translate(0 0)" fill="#f60"/><path d="M16.73,232.72v2.75H5.23v-2.75Z" transform="translate(0 0)" fill="#35b5fc"/><path d="M16.73,189v18.47H5.23V189Z" transform="translate(0 0)" fill="#35b5fc"/><path d="M16.73,21.18v4.33H5.23V21.18Z" transform="translate(0 0)" fill="#006ed3"/><path d="M16.73,42.06v3.15H5.23V42.06Z" transform="translate(0 0)" fill="#006ed3"/><path d="M16.73,47.18v5.5H5.23v-5.5Z" transform="translate(0 0)" fill="#006ed3"/><path d="M16.73,61V91.66H5.23V61Z" transform="translate(0 0)" fill="#006ed3"/><path d="M5.23,122.91a4.27,4.27,0,0,0,4.27,4.23h3a4.26,4.26,0,0,0,4.27-4.23v-.49H5.23Z" transform="translate(0 0)" fill="#35b5fc"/><path d="M12.46,126.78h-3A4.26,4.26,0,0,0,5.23,131v20.53h11.5V131a4.25,4.25,0,0,0-4.27-4.23" transform="translate(0 0)" fill="#35b5fc"/><path d="M27,127h0a5.75,5.75,0,0,0,5.75-5.7v-103a5.75,5.75,0,0,0-11.5,0v103A5.75,5.75,0,0,0,27,127" transform="translate(0 0)" fill="#aedeff"/><path d="M27,242.43h0a5.73,5.73,0,0,0,5.75-5.7V132.58a5.75,5.75,0,0,0-11.5,0V236.73a5.73,5.73,0,0,0,5.75,5.7" transform="translate(0 0)" fill="#008bd8"/><path d="M32.76,31v9.43H21.26V31Z" transform="translate(0 0)" fill="#35b5fc"/><path d="M32.76,101.55V111H21.26v-9.43Z" transform="translate(0 0)" fill="#35b5fc"/><path d="M32.76,163.78v4.72H21.26v-4.72Z" transform="translate(0 0)" fill="#fff"/><path d="M32.76,176.39v6.68H21.26v-6.68Z" transform="translate(0 0)" fill="#35b5fc"/><path d="M32.76,221.3v5.9H21.26v-5.9Z" transform="translate(0 0)" fill="#aedeff"/><path d="M32.76,113.76v5.9H21.26v-5.9Z" transform="translate(0 0)" fill="#f60"/><path d="M32.76,232.72v2.75H21.26v-2.75Z" transform="translate(0 0)" fill="#35b5fc"/><path d="M32.76,189v18.47H21.26V189Z" transform="translate(0 0)" fill="#35b5fc"/><path d="M32.76,21.18v4.33H21.26V21.18Z" transform="translate(0 0)" fill="#006ed3"/><path d="M32.76,42.06v3.15H21.26V42.06Z" transform="translate(0 0)" fill="#006ed3"/><path d="M32.76,47.18v5.5H21.26v-5.5Z" transform="translate(0 0)" fill="#f60"/><path d="M32.76,61V91.66H21.26V61Z" transform="translate(0 0)" fill="#50b4ff"/><path d="M21.26,122.91a4.27,4.27,0,0,0,4.27,4.23h3a4.27,4.27,0,0,0,4.27-4.23v-.49H21.26Z" transform="translate(0 0)" fill="#35b5fc"/><path d="M28.49,126.78h-3A4.25,4.25,0,0,0,21.26,131v20.53h11.5V131a4.25,4.25,0,0,0-4.27-4.23" transform="translate(0 0)" fill="#35b5fc"/><path d="M56.09,108.53h0a5.74,5.74,0,0,0,5.75-5.7v-79a5.75,5.75,0,0,0-11.5,0v79a5.74,5.74,0,0,0,5.75,5.7" transform="translate(0 0)" fill="#aedeff"/><path d="M56.09,242.41h0a5.73,5.73,0,0,0,5.75-5.7V114.08a5.75,5.75,0,0,0-11.5,0V236.71a5.73,5.73,0,0,0,5.75,5.7" transform="translate(0 0)" fill="#aedeff"/><path d="M61.84,86.58V98.77H50.34V86.58Z" transform="translate(0 0)" fill="#35b5fc"/><path d="M61.84,150.4v16.12H50.34V150.4Z" transform="translate(0 0)" fill="#fff"/><path d="M61.84,172.07v14.15H50.34V172.07Z" transform="translate(0 0)" fill="#35b5fc"/><path d="M61.84,221.3v5.9H50.34v-5.9Z" transform="translate(0 0)" fill="#aedeff"/><path d="M61.84,226.81v2.75H50.34v-2.75Z" transform="translate(0 0)" fill="#35b5fc"/><path d="M61.84,206.32v2.76H50.34v-2.76Z" transform="translate(0 0)" fill="#35b5fc"/><path d="M61.84,213.81v5.5H50.34v-5.5Z" transform="translate(0 0)" fill="#35b5fc"/><path d="M61.84,192.55v11H50.34v-11Z" transform="translate(0 0)" fill="#008bd8"/><path d="M61.84,27.49V32.6H50.34V27.49Z" transform="translate(0 0)" fill="#35b5fc"/><path d="M61.84,40.88V48H50.34V40.88Z" transform="translate(0 0)" fill="#006ed3"/><path d="M61.84,54.68V74.34H50.34V54.68Z" transform="translate(0 0)" fill="#006ed3"/><path d="M61.84,74.36v4.72H50.34V74.36Z" transform="translate(0 0)" fill="#35b5fc"/><path d="M61.84,70.82v4.32H50.34V70.82Z" transform="translate(0 0)" fill="#50b4ff"/><path d="M61.84,115.33v4.72H50.34v-4.72Z" transform="translate(0 0)" fill="#35b5fc"/><path d="M61.84,137v3.53H50.34V137Z" transform="translate(0 0)" fill="#35b5fc"/><path d="M61.84,126.36v7.47H50.34v-7.47Z" transform="translate(0 0)" fill="#006ed3"/><path d="M72.12,108.53h0a5.74,5.74,0,0,0,5.75-5.7v-79a5.75,5.75,0,0,0-11.5,0v79a5.74,5.74,0,0,0,5.75,5.7" transform="translate(0 0)" fill="#aedeff"/><path d="M72.12,242.41h0a5.75,5.75,0,0,0,5.75-5.7V114.08a5.75,5.75,0,0,0-11.5,0V236.71a5.73,5.73,0,0,0,5.75,5.7" transform="translate(0 0)" fill="#aedeff"/><path d="M77.87,86.58V98.77H66.37V86.58Z" transform="translate(0 0)" fill="#35b5fc"/><path d="M77.87,150.4v16.12H66.37V150.4Z" transform="translate(0 0)" fill="#fff"/><path d="M77.87,172.07v14.15H66.37V172.07Z" transform="translate(0 0)" fill="#35b5fc"/><path d="M77.87,221.3v5.9H66.37v-5.9Z" transform="translate(0 0)" fill="#aedeff"/><path d="M77.87,226.81v2.75H66.37v-2.75Z" transform="translate(0 0)" fill="#35b5fc"/><path d="M77.87,206.32v2.76H66.37v-2.76Z" transform="translate(0 0)" fill="#35b5fc"/><path d="M77.87,213.81v5.5H66.37v-5.5Z" transform="translate(0 0)" fill="#35b5fc"/><path d="M77.87,192.55v11H66.37v-11Z" transform="translate(0 0)" fill="#008bd8"/><path d="M77.87,27.49V32.6H66.37V27.49Z" transform="translate(0 0)" fill="#35b5fc"/><path d="M77.87,40.88V48H66.37V40.88Z" transform="translate(0 0)" fill="#006ed3"/><path d="M77.87,54.68V74.34H66.37V54.68Z" transform="translate(0 0)" fill="#006ed3"/><path d="M77.87,74.36v4.72H66.37V74.36Z" transform="translate(0 0)" fill="#35b5fc"/><path d="M77.87,38.12v4.33H66.37V38.12Z" transform="translate(0 0)" fill="#f60"/><path d="M77.87,115.33v4.72H66.37v-4.72Z" transform="translate(0 0)" fill="#35b5fc"/><path d="M77.87,137v3.53H66.37V137Z" transform="translate(0 0)" fill="#35b5fc"/><path d="M77.87,126.36v7.47H66.37v-7.47Z" transform="translate(0 0)" fill="#006ed3"/><path d="M101.2,131.72h0A5.75,5.75,0,0,0,107,126V39.16a5.75,5.75,0,0,0-11.5,0V126a5.73,5.73,0,0,0,5.75,5.7" transform="translate(0 0)" fill="#aedeff"/><path d="M101.2,221.94h0a5.75,5.75,0,0,0,5.75-5.7v-79a5.75,5.75,0,0,0-11.5,0v79a5.75,5.75,0,0,0,5.75,5.7" transform="translate(0 0)" fill="#aedeff"/><path d="M107,95.6v13.76H95.45V95.6Z" transform="translate(0 0)" fill="#35b5fc"/><path d="M107,146.41v7.47H95.45v-7.47Z" transform="translate(0 0)" fill="#fff"/><path d="M107,158.63v8.25H95.45v-8.25Z" transform="translate(0 0)" fill="#35b5fc"/><path d="M107,183.05v9H95.45v-9Z" transform="translate(0 0)" fill="#35b5fc"/><path d="M107,197.23v5.9H95.45v-5.9Z" transform="translate(0 0)" fill="#ededed"/><path d="M107,204.32v5.5H95.45v-5.5Z" transform="translate(0 0)" fill="#35b5fc"/><path d="M107,176.34v2.36H95.45v-2.36Z" transform="translate(0 0)" fill="#35b5fc"/><path d="M107,57V71.54H95.45V57Z" transform="translate(0 0)" fill="#006ed3"/><path d="M107,77.87V81.8H95.45V77.87Z" transform="translate(0 0)" fill="#008bd8"/><path d="M107,53.84v3.93H95.45V53.84Z" transform="translate(0 0)" fill="#f60"/><path d="M107,86.53v3.93H95.45V86.53Z" transform="translate(0 0)" fill="#f60"/><path d="M107,37.59a4.27,4.27,0,0,0-4.27-4.24h-3a4.27,4.27,0,0,0-4.27,4.24v.48H107Z" transform="translate(0 0)" fill="#35b5fc"/><path d="M95.45,217.8A4.27,4.27,0,0,0,99.72,222h3A4.26,4.26,0,0,0,107,217.8v-.49H95.45Z" transform="translate(0 0)" fill="#35b5fc"/><path d="M99.72,131.81h3a4.26,4.26,0,0,0,4.27-4.23V115.7H95.45v11.88a4.25,4.25,0,0,0,4.27,4.23" transform="translate(0 0)" fill="#35b5fc"/><path d="M117.22,131.72h0A5.73,5.73,0,0,0,123,126V39.16a5.75,5.75,0,0,0-11.5,0V126a5.75,5.75,0,0,0,5.75,5.7" transform="translate(0 0)" fill="#aedeff"/><path d="M117.22,221.94h0a5.75,5.75,0,0,0,5.75-5.7v-79a5.75,5.75,0,0,0-11.5,0v79a5.76,5.76,0,0,0,5.75,5.7" transform="translate(0 0)" fill="#aedeff"/><path d="M123,95.6v13.76h-11.5V95.6Z" transform="translate(0 0)" fill="#35b5fc"/><path d="M123,146.41v7.47h-11.5v-7.47Z" transform="translate(0 0)" fill="#fff"/><path d="M123,158.63v8.25h-11.5v-8.25Z" transform="translate(0 0)" fill="#35b5fc"/><path d="M123,183.05v9h-11.5v-9Z" transform="translate(0 0)" fill="#35b5fc"/><path d="M123,197.23v5.9h-11.5v-5.9Z" transform="translate(0 0)" fill="#ededed"/><path d="M123,204.32v5.5h-11.5v-5.5Z" transform="translate(0 0)" fill="#35b5fc"/><path d="M123,176.34v2.36h-11.5v-2.36Z" transform="translate(0 0)" fill="#35b5fc"/><path d="M123,57V71.54h-11.5V57Z" transform="translate(0 0)" fill="#006ed3"/><path d="M123,77.87V81.8h-11.5V77.87Z" transform="translate(0 0)" fill="#008bd8"/><path d="M123,37.59a4.26,4.26,0,0,0-4.26-4.24h-3a4.27,4.27,0,0,0-4.27,4.24v.48H123Z" transform="translate(0 0)" fill="#35b5fc"/><path d="M111.47,217.8a4.27,4.27,0,0,0,4.27,4.23h3A4.24,4.24,0,0,0,123,217.8v-.49h-11.5Z" transform="translate(0 0)" fill="#35b5fc"/><path d="M115.74,131.81h3a4.25,4.25,0,0,0,4.27-4.23V115.7h-11.5v11.88a4.26,4.26,0,0,0,4.27,4.23" transform="translate(0 0)" fill="#35b5fc"/><path d="M146.3,96h0a5.75,5.75,0,0,0,5.75-5.7V45.84a5.75,5.75,0,0,0-11.5,0V90.26A5.75,5.75,0,0,0,146.3,96" transform="translate(0 0)" fill="#aedeff"/><path d="M146.3,221.54h0a5.73,5.73,0,0,0,5.75-5.7V101.47a5.75,5.75,0,0,0-11.5,0V215.84a5.75,5.75,0,0,0,5.75,5.7" transform="translate(0 0)" fill="#aedeff"/><path d="M152.05,68.45v3.14h-11.5V68.45Z" transform="translate(0 0)" fill="#35b5fc"/><path d="M152.05,82.24V90.1h-11.5V82.24Z" transform="translate(0 0)" fill="#35b5fc"/><path d="M152.05,104.31V120h-11.5V104.31Z" transform="translate(0 0)" fill="#35b5fc"/><path d="M152.05,126.36v7.07h-11.5v-7.07Z" transform="translate(0 0)" fill="#ededed"/><path d="M152.05,135.81v5.11h-11.5v-5.11Z" transform="translate(0 0)" fill="#35b5fc"/><path d="M152.05,142.52V154.7h-11.5V142.52Z" transform="translate(0 0)" fill="#35b5fc"/><path d="M152.05,180.32v3.54h-11.5v-3.54Z" transform="translate(0 0)" fill="#35b5fc"/><path d="M152.05,189v11h-11.5V189Z" transform="translate(0 0)" fill="#35b5fc"/><path d="M152.05,206.72v5.5h-11.5v-5.5Z" transform="translate(0 0)" fill="#35b5fc"/><path d="M152.05,158.67v18.08h-11.5V158.67Z" transform="translate(0 0)" fill="#006ed3"/><path d="M152.05,53.09v9.83h-11.5V53.09Z" transform="translate(0 0)" fill="#006ed3"/><path d="M162.33,96h0a5.75,5.75,0,0,0,5.75-5.7V45.84a5.75,5.75,0,0,0-11.5,0V90.26a5.74,5.74,0,0,0,5.75,5.7" transform="translate(0 0)" fill="#aedeff"/><path d="M162.33,221.54h0a5.73,5.73,0,0,0,5.75-5.7V101.47a5.75,5.75,0,0,0-11.5,0V215.84a5.73,5.73,0,0,0,5.75,5.7" transform="translate(0 0)" fill="#aedeff"/><path d="M168.08,68.45v3.14h-11.5V68.45Z" transform="translate(0 0)" fill="#35b5fc"/><path d="M168.08,82.24V90.1h-11.5V82.24Z" transform="translate(0 0)" fill="#35b5fc"/><path d="M168.08,104.31V120h-11.5V104.31Z" transform="translate(0 0)" fill="#35b5fc"/><path d="M168.08,126.36v7.07h-11.5v-7.07Z" transform="translate(0 0)" fill="#ededed"/><path d="M168.08,135.81v5.11h-11.5v-5.11Z" transform="translate(0 0)" fill="#35b5fc"/><path d="M168.08,142.52V154.7h-11.5V142.52Z" transform="translate(0 0)" fill="#35b5fc"/><path d="M168.08,180.32v3.54h-11.5v-3.54Z" transform="translate(0 0)" fill="#35b5fc"/><path d="M168.08,189v11h-11.5V189Z" transform="translate(0 0)" fill="#35b5fc"/><path d="M168.08,206.72v5.5h-11.5v-5.5Z" transform="translate(0 0)" fill="#35b5fc"/><path d="M168.08,158.67v18.08h-11.5V158.67Z" transform="translate(0 0)" fill="#006ed3"/><path d="M168.08,53.09v9.83h-11.5V53.09Z" transform="translate(0 0)" fill="#006ed3"/><path d="M191.41,96.58h0a5.73,5.73,0,0,0,5.75-5.7v-42a5.75,5.75,0,0,0-11.5,0V90.88a5.74,5.74,0,0,0,5.75,5.7" transform="translate(0 0)" fill="#aedeff"/><path d="M191.41,217.44h0a5.73,5.73,0,0,0,5.75-5.7V102.08a5.75,5.75,0,0,0-11.5,0V211.74a5.74,5.74,0,0,0,5.75,5.7" transform="translate(0 0)" fill="#aedeff"/><path d="M197.16,65.15v16.9h-11.5V65.15Z" transform="translate(0 0)" fill="#006ed3"/><path d="M197.16,106.1v7.08h-11.5V106.1Z" transform="translate(0 0)" fill="#35b5fc"/><path d="M197.16,156.14v14.15h-11.5V156.14Z" transform="translate(0 0)" fill="#ededed"/><path d="M197.16,123.44v13.37h-11.5V123.44Z" transform="translate(0 0)" fill="#35b5fc"/><path d="M197.16,139.2v16.9h-11.5V139.2Z" transform="translate(0 0)" fill="#006ed3"/><path d="M197.16,190.4v5.5h-11.5v-5.5Z" transform="translate(0 0)" fill="#35b5fc"/><path d="M197.16,199.86v7.46h-11.5v-7.46Z" transform="translate(0 0)" fill="#35b5fc"/><path d="M197.16,58.83V62h-11.5V58.83Z" transform="translate(0 0)" fill="#006ed3"/><path d="M185.66,92.41a4.27,4.27,0,0,0,4.27,4.23h3a4.26,4.26,0,0,0,4.27-4.23v-.49h-11.5Z" transform="translate(0 0)" fill="#35b5fc"/><path d="M197.16,128.55v2.36h-11.5v-2.36Z" transform="translate(0 0)" fill="#f60"/><path d="M197.16,161.64v4.72h-11.5v-4.72Z" transform="translate(0 0)" fill="#f60"/><path d="M207.44,96.58h0a5.74,5.74,0,0,0,5.75-5.7v-42a5.75,5.75,0,0,0-11.5,0V90.88a5.73,5.73,0,0,0,5.75,5.7" transform="translate(0 0)" fill="#aedeff"/><path d="M207.44,217.44h0a5.74,5.74,0,0,0,5.75-5.7V102.08a5.75,5.75,0,0,0-11.5,0V211.74a5.73,5.73,0,0,0,5.75,5.7" transform="translate(0 0)" fill="#aedeff"/><path d="M213.19,65.15v16.9h-11.5V65.15Z" transform="translate(0 0)" fill="#006ed3"/><path d="M213.19,106.1v7.08h-11.5V106.1Z" transform="translate(0 0)" fill="#35b5fc"/><path d="M213.19,156.14v14.15h-11.5V156.14Z" transform="translate(0 0)" fill="#ededed"/><path d="M213.19,123.44v13.37h-11.5V123.44Z" transform="translate(0 0)" fill="#35b5fc"/><path d="M213.19,139.2v16.9h-11.5V139.2Z" transform="translate(0 0)" fill="#006ed3"/><path d="M213.19,190.4v5.5h-11.5v-5.5Z" transform="translate(0 0)" fill="#35b5fc"/><path d="M213.19,199.86v7.46h-11.5v-7.46Z" transform="translate(0 0)" fill="#35b5fc"/><path d="M213.19,58.83V62h-11.5V58.83Z" transform="translate(0 0)" fill="#006ed3"/><path d="M201.69,92.41A4.27,4.27,0,0,0,206,96.64h3a4.27,4.27,0,0,0,4.27-4.23v-.49h-11.5Z" transform="translate(0 0)" fill="#35b5fc"/><path d="M213.19,86v5.9h-11.5V86Z" transform="translate(0 0)" fill="#50b4ff"/><path d="M213.19,205.76v3.15h-11.5v-3.15Z" transform="translate(0 0)" fill="#50b4ff"/><path d="M236.52,216.59h0a5.73,5.73,0,0,0,5.75-5.7V122.07a5.75,5.75,0,0,0-11.5,0v88.82a5.73,5.73,0,0,0,5.75,5.7" transform="translate(0 0)" fill="#aedeff"/><path d="M242.27,130.83v4.33h-11.5v-4.33Z" transform="translate(0 0)" fill="#006ed3"/><path d="M242.27,139.51v9.43h-11.5v-9.43Z" transform="translate(0 0)" fill="#35b5fc"/><path d="M242.27,151.32v3.93h-11.5v-3.93Z" transform="translate(0 0)" fill="#006ed3"/><path d="M242.27,184v8.64h-11.5V184Z" transform="translate(0 0)" fill="#35b5fc"/><path d="M242.27,179.29V184h-11.5v-4.71Z" transform="translate(0 0)" fill="#f60"/><path d="M242.27,158.42v17.69h-11.5V158.42Z" transform="translate(0 0)" fill="#006ed3"/><path d="M242.27,204.1v3.54h-11.5V204.1Z" transform="translate(0 0)" fill="#008bd8"/><path d="M230.77,120.5a4.25,4.25,0,0,1,4.27-4.23h3a4.25,4.25,0,0,1,4.27,4.23v6.38h-11.5Z" transform="translate(0 0)" fill="#35b5fc"/><path d="M236.52,116.57h0a5.73,5.73,0,0,0,5.75-5.7V51.13a5.75,5.75,0,0,0-11.5,0v59.74a5.73,5.73,0,0,0,5.75,5.7" transform="translate(0 0)" fill="#aedeff"/><path d="M242.27,65.85V79.6h-11.5V65.85Z" transform="translate(0 0)" fill="#35b5fc"/><path d="M242.27,91.44v2h-11.5v-2Z" transform="translate(0 0)" fill="#008bd8"/><path d="M242.27,54v2.36h-11.5V54Z" transform="translate(0 0)" fill="#006ed3"/><path d="M242.27,98.15v12.58h-11.5V98.15Z" transform="translate(0 0)" fill="#006ed3"/><path d="M242.27,69v4.72h-11.5V69Z" transform="translate(0 0)" fill="#50b4ff"/><path d="M252.55,216.59h0a5.75,5.75,0,0,0,5.75-5.7V122.07a5.75,5.75,0,0,0-11.5,0v88.82a5.73,5.73,0,0,0,5.75,5.7" transform="translate(0 0)" fill="#aedeff"/><path d="M258.3,130.83v4.33H246.8v-4.33Z" transform="translate(0 0)" fill="#006ed3"/><path d="M258.3,139.51v9.43H246.8v-9.43Z" transform="translate(0 0)" fill="#35b5fc"/><path d="M258.3,151.32v3.93H246.8v-3.93Z" transform="translate(0 0)" fill="#006ed3"/><path d="M258.3,184v8.64H246.8V184Z" transform="translate(0 0)" fill="#35b5fc"/><path d="M258.3,179.29V184H246.8v-4.71Z" transform="translate(0 0)" fill="#f60"/><path d="M258.3,158.42v17.69H246.8V158.42Z" transform="translate(0 0)" fill="#006ed3"/><path d="M258.3,204.1v3.54H246.8V204.1Z" transform="translate(0 0)" fill="#008bd8"/><path d="M246.8,120.5a4.24,4.24,0,0,1,4.26-4.23h3a4.26,4.26,0,0,1,4.27,4.23v6.38H246.8Z" transform="translate(0 0)" fill="#35b5fc"/><path d="M252.55,116.57h0a5.75,5.75,0,0,0,5.75-5.7V51.13a5.75,5.75,0,0,0-11.5,0v59.74a5.73,5.73,0,0,0,5.75,5.7" transform="translate(0 0)" fill="#aedeff"/><path d="M258.3,65.85V79.6H246.8V65.85Z" transform="translate(0 0)" fill="#35b5fc"/><path d="M258.3,91.44v2H246.8v-2Z" transform="translate(0 0)" fill="#008bd8"/><path d="M258.3,54v2.36H246.8V54Z" transform="translate(0 0)" fill="#008bd8"/><path d="M258.3,98.15v12.58H246.8V98.15Z" transform="translate(0 0)" fill="#006ed3"/><path d="M258.3,66.23V71H246.8V66.23Z" transform="translate(0 0)" fill="#50b4ff"/><path d="M258.3,50.48v7.86H246.8V50.48Z" transform="translate(0 0)" fill="#f60"/><path d="M281.63,204.12h0a5.75,5.75,0,0,0,5.75-5.7V117.06a5.75,5.75,0,0,0-11.5,0v81.36a5.73,5.73,0,0,0,5.75,5.7" transform="translate(0 0)" fill="#aedeff"/><path d="M287.38,125.07v18.08h-11.5V125.07Z" transform="translate(0 0)" fill="#006ed3"/><path d="M287.38,122.69V129h-11.5v-6.29Z" transform="translate(0 0)" fill="#50b4ff"/><path d="M287.38,145.54V155h-11.5v-9.43Z" transform="translate(0 0)" fill="#35b5fc"/><path d="M287.38,181.38v3.54h-11.5v-3.54Z" transform="translate(0 0)" fill="#35b5fc"/><path d="M287.38,164.45v5.9h-11.5v-5.9Z" transform="translate(0 0)" fill="#008bd8"/><path d="M287.38,190.44v3.14h-11.5v-3.14Z" transform="translate(0 0)" fill="#008bd8"/><path d="M281.63,111.58h0a5.75,5.75,0,0,0,5.75-5.7V57.15a5.75,5.75,0,0,0-11.5,0v48.74a5.75,5.75,0,0,0,5.75,5.7" transform="translate(0 0)" fill="#aedeff"/><path d="M287.38,61.25V77.76h-11.5V61.25Z" transform="translate(0 0)" fill="#35b5fc"/><path d="M287.38,90.39V95.5h-11.5V90.39Z" transform="translate(0 0)" fill="#006ed3"/><path d="M287.38,101.42v4.32h-11.5v-4.32Z" transform="translate(0 0)" fill="#006ed3"/><path d="M297.65,204.12h0a5.73,5.73,0,0,0,5.75-5.7V117.06a5.75,5.75,0,0,0-11.5,0v81.36a5.74,5.74,0,0,0,5.75,5.7" transform="translate(0 0)" fill="#aedeff"/><path d="M303.4,125.07v18.08H291.9V125.07Z" transform="translate(0 0)" fill="#006ed3"/><path d="M303.4,115.6v7.47H291.9V115.6Z" transform="translate(0 0)" fill="#50b4ff"/><path d="M303.4,145.54V155H291.9v-9.43Z" transform="translate(0 0)" fill="#35b5fc"/><path d="M303.4,181.38v3.54H291.9v-3.54Z" transform="translate(0 0)" fill="#35b5fc"/><path d="M303.4,164.45v5.9H291.9v-5.9Z" transform="translate(0 0)" fill="#008bd8"/><path d="M303.4,190.44v3.14H291.9v-3.14Z" transform="translate(0 0)" fill="#008bd8"/><path d="M297.65,111.58h0a5.73,5.73,0,0,0,5.75-5.7V57.15a5.75,5.75,0,0,0-11.5,0v48.74a5.75,5.75,0,0,0,5.75,5.7" transform="translate(0 0)" fill="#aedeff"/><path d="M303.4,61.25V77.76H291.9V61.25Z" transform="translate(0 0)" fill="#35b5fc"/><path d="M303.4,90.39V95.5H291.9V90.39Z" transform="translate(0 0)" fill="#006ed3"/><path d="M303.4,101.42v4.32H291.9v-4.32Z" transform="translate(0 0)" fill="#006ed3"/></g></svg>