<svg xmlns="http://www.w3.org/2000/svg" xmlns:xlink="http://www.w3.org/1999/xlink" viewBox="0 0 230.84 242.302"><defs><style>.a,.m{fill:none;}.b{clip-path:url(#a);}.c{fill:#50b4ff;}.d{clip-path:url(#b);}.e{fill:#008bd8;}.f{clip-path:url(#c);}.g{fill:#35b5fc;}.h{fill:#fff;}.i{fill:#f60;}.j{fill:#006ed3;}.k{fill:#aedeff;}.l{fill:#ededed;}.m{stroke:#fff;stroke-miterlimit:10;}</style><clipPath id="a"><path class="a" d="M0,0H-93.164V9.324H0Z" transform="translate(0 -0.081) rotate(180)"/></clipPath><clipPath id="b"><path class="a" d="M0,0H-94.124V9.324H0Z" transform="translate(0.107 -0.081) rotate(180)"/></clipPath><clipPath id="c"><path class="a" d="M0,242.3H-190.84V0H0Z" transform="translate(0 -0.617) rotate(180)"/></clipPath></defs><g transform="translate(32.84 -129.617)"><g transform="translate(158 129) rotate(180)"><g transform="translate(0 -0.536)"><path class="a" d="M0,0H-93.164V9.324H0Z" transform="translate(0 -0.081) rotate(-180)"/><g class="b"><path class="c" d="M-93.164,4.662h0a4.666,4.666,0,0,0,4.642,4.662h83.88A4.666,4.666,0,0,0,0,4.662,4.666,4.666,0,0,0-4.642,0h-83.88a4.666,4.666,0,0,0-4.642,4.662" transform="translate(0 -0.08) rotate(-180)"/></g></g><g transform="translate(92.736 -0.536)"><path class="a" d="M0,0H-94.124V9.324H0Z" transform="translate(0.107 -0.081) rotate(-180)"/><g class="d"><path class="e" d="M-94.124,4.662h0a4.666,4.666,0,0,0,4.642,4.662h84.84A4.666,4.666,0,0,0,0,4.662,4.666,4.666,0,0,0-4.642,0h-84.84a4.666,4.666,0,0,0-4.642,4.662" transform="translate(0.107 -0.08) rotate(-180)"/></g></g><path class="a" d="M0,242.3H-190.84V0H0Z" transform="translate(0 -0.617) rotate(-180)"/><g class="f"><path class="g" d="M0,9.323H-7.684V0H0Z" transform="translate(15.047 -0.617) rotate(-180)"/><path class="g" d="M0,9.323H-7.684V0H0Z" transform="translate(72.354 -0.617) rotate(-180)"/><path class="h" d="M0,9.323H-3.841V0H0Z" transform="translate(122.938 -0.617) rotate(-180)"/><path class="g" d="M0,9.323H-5.443V0H0Z" transform="translate(133.183 -0.617) rotate(-180)"/><path class="i" d="M0,9.323H-4.8V0H0Z" transform="translate(169.68 -0.617) rotate(-180)"/><path class="g" d="M0,9.323H-2.241V0H0Z" transform="translate(178.965 -0.617) rotate(-180)"/><path class="g" d="M0,9.323H-15.047V0H0Z" transform="translate(143.427 -0.617) rotate(-180)"/><path class="j" d="M0,9.323H-3.522V0H0Z" transform="translate(7.044 -0.617) rotate(-180)"/><path class="j" d="M0,9.323H-2.562V0H0Z" transform="translate(24.011 -0.617) rotate(-180)"/><path class="j" d="M0,9.323H-4.482V0H0Z" transform="translate(28.173 -0.617) rotate(-180)"/><path class="j" d="M0,9.323H-24.972V0H0Z" transform="translate(39.379 -0.617) rotate(-180)"/><path class="g" d="M-.4,0A3.464,3.464,0,0,0-3.842,3.461v2.4A3.463,3.463,0,0,0-.4,9.323H0V0Z" transform="translate(89.322 -0.617) rotate(-180)"/><path class="g" d="M0,5.863v-2.4A3.463,3.463,0,0,0-3.445,0H-20.17V9.323H-3.445A3.462,3.462,0,0,0,0,5.863" transform="translate(92.844 -0.617) rotate(-180)"/><path class="k" d="M-93.164,4.662h0a4.666,4.666,0,0,0,4.642,4.662h83.88A4.666,4.666,0,0,0,0,4.662,4.666,4.666,0,0,0-4.642,0h-83.88a4.666,4.666,0,0,0-4.642,4.662" transform="translate(0 -13.641) rotate(-180)"/><path class="e" d="M-94.124,4.662h0a4.666,4.666,0,0,0,4.642,4.662h84.84A4.666,4.666,0,0,0,0,4.662,4.666,4.666,0,0,0-4.642,0h-84.84a4.666,4.666,0,0,0-4.642,4.662" transform="translate(92.844 -13.641) rotate(-180)"/><path class="g" d="M0,9.323H-7.684V0H0Z" transform="translate(15.047 -13.641) rotate(-180)"/><path class="g" d="M0,9.323H-7.684V0H0Z" transform="translate(72.354 -13.641) rotate(-180)"/><path class="h" d="M0,9.323H-3.841V0H0Z" transform="translate(122.938 -13.641) rotate(-180)"/><path class="g" d="M0,9.323H-5.443V0H0Z" transform="translate(133.183 -13.641) rotate(-180)"/><path class="k" d="M0,9.323H-4.8V0H0Z" transform="translate(169.68 -13.641) rotate(-180)"/><path class="i" d="M0,9.323H-4.8V0H0Z" transform="translate(82.279 -13.641) rotate(-180)"/><path class="g" d="M0,9.323H-2.241V0H0Z" transform="translate(178.965 -13.641) rotate(-180)"/><path class="g" d="M0,9.323H-15.047V0H0Z" transform="translate(143.427 -13.641) rotate(-180)"/><path class="j" d="M0,9.323H-3.522V0H0Z" transform="translate(7.044 -13.641) rotate(-180)"/><path class="j" d="M0,9.323H-2.562V0H0Z" transform="translate(24.011 -13.641) rotate(-180)"/><path class="i" d="M0,9.323H-4.482V0H0Z" transform="translate(28.173 -13.641) rotate(-180)"/><path class="c" d="M0,9.323H-24.972V0H0Z" transform="translate(39.379 -13.641) rotate(-180)"/><path class="g" d="M-.4,0A3.464,3.464,0,0,0-3.842,3.461v2.4A3.463,3.463,0,0,0-.4,9.323H0V0Z" transform="translate(89.322 -13.641) rotate(-180)"/><path class="g" d="M0,5.863v-2.4A3.463,3.463,0,0,0-3.445,0H-20.17V9.323H-3.445A3.462,3.462,0,0,0,0,5.863" transform="translate(92.844 -13.641) rotate(-180)"/><path class="k" d="M-73.634,4.662h0a4.666,4.666,0,0,0,4.642,4.662h64.35A4.666,4.666,0,0,0,0,4.662,4.666,4.666,0,0,0-4.642,0h-64.35a4.666,4.666,0,0,0-4.642,4.662" transform="translate(4.482 -37.276) rotate(-180)"/><path class="k" d="M-109.172,4.662h0a4.666,4.666,0,0,0,4.642,4.662H-4.642A4.666,4.666,0,0,0,0,4.662,4.666,4.666,0,0,0-4.642,0h-99.887a4.666,4.666,0,0,0-4.642,4.662" transform="translate(77.796 -37.276) rotate(-180)"/><path class="g" d="M0,9.323H-9.925V0H0Z" transform="translate(60.188 -37.276) rotate(-180)"/><path class="h" d="M0,9.323H-13.126V0H0Z" transform="translate(112.053 -37.276) rotate(-180)"/><path class="g" d="M0,9.323H-11.526V0H0Z" transform="translate(129.661 -37.276) rotate(-180)"/><path class="k" d="M0,9.323H-4.8V0H0Z" transform="translate(169.68 -37.276) rotate(-180)"/><path class="g" d="M0,9.323H-2.241V0H0Z" transform="translate(174.162 -37.276) rotate(-180)"/><path class="g" d="M0,9.323H-2.241V0H0Z" transform="translate(157.514 -37.276) rotate(-180)"/><path class="g" d="M0,9.323H-4.482V0H0Z" transform="translate(163.597 -37.276) rotate(-180)"/><path class="e" d="M0,9.323H-8.965V0H0Z" transform="translate(146.308 -37.276) rotate(-180)"/><path class="g" d="M0,9.323H-4.161V0H0Z" transform="translate(12.166 -37.276) rotate(-180)"/><path class="j" d="M0,9.323H-5.763V0H0Z" transform="translate(23.051 -37.276) rotate(-180)"/><path class="j" d="M0,9.323H-16.007V0H0Z" transform="translate(34.257 -37.276) rotate(-180)"/><path class="g" d="M0,9.323H-3.842V0H0Z" transform="translate(50.264 -37.276) rotate(-180)"/><path class="c" d="M0,9.323H-3.522V0H0Z" transform="translate(47.383 -37.276) rotate(-180)"/><path class="g" d="M0,9.323H-3.841V0H0Z" transform="translate(83.559 -37.276) rotate(-180)"/><path class="g" d="M0,9.323H-2.881V0H0Z" transform="translate(101.168 -37.276) rotate(-180)"/><path class="j" d="M0,9.323H-6.083V0H0Z" transform="translate(92.524 -37.276) rotate(-180)"/><path class="k" d="M-73.634,4.662h0a4.666,4.666,0,0,0,4.642,4.662h64.35A4.666,4.666,0,0,0,0,4.662,4.666,4.666,0,0,0-4.642,0h-64.35a4.666,4.666,0,0,0-4.642,4.662" transform="translate(4.482 -50.3) rotate(-180)"/><path class="k" d="M-109.172,4.662h0a4.666,4.666,0,0,0,4.642,4.662H-4.642A4.666,4.666,0,0,0,0,4.662,4.666,4.666,0,0,0-4.642,0h-99.887a4.666,4.666,0,0,0-4.642,4.662" transform="translate(77.796 -50.3) rotate(-180)"/><path class="g" d="M0,9.323H-9.925V0H0Z" transform="translate(60.188 -50.3) rotate(-180)"/><path class="h" d="M0,9.323H-13.126V0H0Z" transform="translate(112.053 -50.3) rotate(-180)"/><path class="g" d="M0,9.323H-11.526V0H0Z" transform="translate(129.661 -50.3) rotate(-180)"/><path class="k" d="M0,9.323H-4.8V0H0Z" transform="translate(169.68 -50.3) rotate(-180)"/><path class="g" d="M0,9.323H-2.241V0H0Z" transform="translate(174.162 -50.3) rotate(-180)"/><path class="g" d="M0,9.323H-2.241V0H0Z" transform="translate(157.514 -50.3) rotate(-180)"/><path class="g" d="M0,9.323H-4.482V0H0Z" transform="translate(163.597 -50.3) rotate(-180)"/><path class="e" d="M0,9.323H-8.965V0H0Z" transform="translate(146.308 -50.3) rotate(-180)"/><path class="g" d="M0,9.323H-4.161V0H0Z" transform="translate(12.166 -50.3) rotate(-180)"/><path class="j" d="M0,9.323H-5.763V0H0Z" transform="translate(23.051 -50.3) rotate(-180)"/><path class="j" d="M0,9.323H-16.007V0H0Z" transform="translate(34.257 -50.3) rotate(-180)"/><path class="g" d="M0,9.323H-3.842V0H0Z" transform="translate(50.264 -50.3) rotate(-180)"/><path class="i" d="M0,9.323H-3.522V0H0Z" transform="translate(20.81 -50.3) rotate(-180)"/><path class="g" d="M0,9.323H-3.841V0H0Z" transform="translate(83.559 -50.3) rotate(-180)"/><path class="g" d="M0,9.323H-2.881V0H0Z" transform="translate(101.168 -50.3) rotate(-180)"/><path class="j" d="M0,9.323H-6.083V0H0Z" transform="translate(92.524 -50.3) rotate(-180)"/><path class="k" d="M-80.038,4.662h0A4.666,4.666,0,0,0-75.4,9.324H-4.642A4.666,4.666,0,0,0,0,4.662,4.666,4.666,0,0,0-4.642,0H-75.4a4.666,4.666,0,0,0-4.642,4.662" transform="translate(33.616 -73.935) rotate(-180)"/><path class="k" d="M-73.634,4.662h0a4.666,4.666,0,0,0,4.642,4.662h64.35A4.666,4.666,0,0,0,0,4.662,4.666,4.666,0,0,0-4.642,0h-64.35a4.666,4.666,0,0,0-4.642,4.662" transform="translate(113.333 -73.935) rotate(-180)"/><path class="g" d="M0,9.323H-11.205V0H0Z" transform="translate(84.2 -73.935) rotate(-180)"/><path class="h" d="M0,9.323H-6.083V0H0Z" transform="translate(125.499 -73.935) rotate(-180)"/><path class="g" d="M0,9.323H-6.723V0H0Z" transform="translate(135.424 -73.935) rotate(-180)"/><path class="g" d="M0,9.323H-7.363V0H0Z" transform="translate(155.273 -73.935) rotate(-180)"/><path class="l" d="M0,9.323H-4.8V0H0Z" transform="translate(166.799 -73.935) rotate(-180)"/><path class="g" d="M0,9.323H-4.482V0H0Z" transform="translate(172.561 -73.935) rotate(-180)"/><path class="g" d="M0,9.323H-1.921V0H0Z" transform="translate(149.831 -73.935) rotate(-180)"/><path class="j" d="M0,9.323H-11.845V0H0Z" transform="translate(52.825 -73.935) rotate(-180)"/><path class="e" d="M0,9.323H-3.2V0H0Z" transform="translate(69.792 -73.935) rotate(-180)"/><path class="i" d="M0,9.323H-3.2V0H0Z" transform="translate(50.264 -73.935) rotate(-180)"/><path class="i" d="M0,9.323H-3.2V0H0Z" transform="translate(76.836 -73.935) rotate(-180)"/><path class="g" d="M-3.446,9.323A3.463,3.463,0,0,0,0,5.863V3.46A3.463,3.463,0,0,0-3.446,0h-.4V9.323Z" transform="translate(33.616 -73.935) rotate(-180)"/><path class="g" d="M-.4,0A3.463,3.463,0,0,0-3.841,3.461v2.4A3.462,3.462,0,0,0-.4,9.323H0V0Z" transform="translate(183.126 -73.935) rotate(-180)"/><path class="g" d="M-13.126,3.46v2.4A3.463,3.463,0,0,0-9.681,9.323H0V0H-9.681a3.462,3.462,0,0,0-3.445,3.46" transform="translate(100.527 -73.935) rotate(-180)"/><path class="k" d="M-80.038,4.662h0A4.666,4.666,0,0,0-75.4,9.324H-4.642A4.666,4.666,0,0,0,0,4.662,4.666,4.666,0,0,0-4.642,0H-75.4a4.666,4.666,0,0,0-4.642,4.662" transform="translate(33.616 -86.959) rotate(-180)"/><path class="k" d="M-73.634,4.662h0a4.666,4.666,0,0,0,4.642,4.662h64.35A4.666,4.666,0,0,0,0,4.662,4.666,4.666,0,0,0-4.642,0h-64.35a4.666,4.666,0,0,0-4.642,4.662" transform="translate(113.333 -86.959) rotate(-180)"/><path class="g" d="M0,9.323H-11.205V0H0Z" transform="translate(84.2 -86.959) rotate(-180)"/><path class="h" d="M0,9.323H-6.083V0H0Z" transform="translate(125.499 -86.959) rotate(-180)"/><path class="g" d="M0,9.323H-6.723V0H0Z" transform="translate(135.424 -86.959) rotate(-180)"/><path class="g" d="M0,9.323H-7.363V0H0Z" transform="translate(155.273 -86.959) rotate(-180)"/><path class="l" d="M0,9.323H-4.8V0H0Z" transform="translate(166.799 -86.959) rotate(-180)"/><path class="g" d="M0,9.323H-4.482V0H0Z" transform="translate(172.561 -86.959) rotate(-180)"/><path class="g" d="M0,9.323H-1.921V0H0Z" transform="translate(149.831 -86.959) rotate(-180)"/><path class="j" d="M0,9.323H-11.845V0H0Z" transform="translate(52.825 -86.959) rotate(-180)"/><path class="e" d="M0,9.323H-3.2V0H0Z" transform="translate(69.792 -86.959) rotate(-180)"/><path class="g" d="M-3.446,9.323A3.463,3.463,0,0,0,0,5.863V3.46A3.463,3.463,0,0,0-3.446,0h-.4V9.323Z" transform="translate(33.616 -86.96) rotate(-180)"/><path class="g" d="M-.4,0A3.462,3.462,0,0,0-3.841,3.46v2.4A3.462,3.462,0,0,0-.4,9.323H0V0Z" transform="translate(183.126 -86.959) rotate(-180)"/><path class="g" d="M-13.126,3.46v2.4A3.463,3.463,0,0,0-9.681,9.323H0V0H-9.681a3.462,3.462,0,0,0-3.445,3.46" transform="translate(100.527 -86.96) rotate(-180)"/><path class="k" d="M-45.461,4.663h0a4.666,4.666,0,0,0,4.642,4.662H-4.642A4.666,4.666,0,0,0,0,4.663,4.666,4.666,0,0,0-4.642,0H-40.819a4.666,4.666,0,0,0-4.642,4.663" transform="translate(39.089 -110.593) rotate(-180)"/><path class="k" d="M-102.448,4.663h0a4.666,4.666,0,0,0,4.642,4.662H-4.642A4.666,4.666,0,0,0,0,4.663,4.666,4.666,0,0,0-4.642,0H-97.806a4.666,4.666,0,0,0-4.642,4.663" transform="translate(84.23 -110.593) rotate(-180)"/><path class="g" d="M0,9.324H-2.561V0H0Z" transform="translate(62.139 -110.593) rotate(-180)"/><path class="g" d="M0,9.324H-6.4V0H0Z" transform="translate(73.345 -110.593) rotate(-180)"/><path class="g" d="M0,9.324H-12.806V0H0Z" transform="translate(91.273 -110.593) rotate(-180)"/><path class="l" d="M0,9.324H-5.763V0H0Z" transform="translate(109.201 -110.593) rotate(-180)"/><path class="g" d="M0,9.324H-4.162V0H0Z" transform="translate(116.885 -110.593) rotate(-180)"/><path class="g" d="M0,9.324H-9.925V0H0Z" transform="translate(122.328 -110.593) rotate(-180)"/><path class="g" d="M0,9.324H-2.881V0H0Z" transform="translate(153.062 -110.593) rotate(-180)"/><path class="g" d="M0,9.324H-8.964V0H0Z" transform="translate(160.105 -110.593) rotate(-180)"/><path class="g" d="M0,9.324H-4.482V0H0Z" transform="translate(174.512 -110.593) rotate(-180)"/><path class="j" d="M0,9.324H-14.727V0H0Z" transform="translate(135.454 -110.593) rotate(-180)"/><path class="j" d="M0,9.324H-8V0H0Z" transform="translate(49.653 -110.593) rotate(-180)"/><path class="k" d="M-45.461,4.663h0a4.666,4.666,0,0,0,4.642,4.662H-4.642A4.666,4.666,0,0,0,0,4.663,4.666,4.666,0,0,0-4.642,0H-40.819a4.666,4.666,0,0,0-4.642,4.663" transform="translate(39.089 -123.618) rotate(-180)"/><path class="k" d="M-102.448,4.663h0a4.666,4.666,0,0,0,4.642,4.662H-4.642A4.666,4.666,0,0,0,0,4.663,4.666,4.666,0,0,0-4.642,0H-97.806a4.666,4.666,0,0,0-4.642,4.663" transform="translate(84.23 -123.618) rotate(-180)"/><path class="g" d="M0,9.324H-2.561V0H0Z" transform="translate(62.139 -123.618) rotate(-180)"/><path class="g" d="M0,9.324H-6.4V0H0Z" transform="translate(73.345 -123.618) rotate(-180)"/><path class="g" d="M0,9.324H-12.806V0H0Z" transform="translate(91.273 -123.618) rotate(-180)"/><path class="l" d="M0,9.324H-5.763V0H0Z" transform="translate(109.201 -123.618) rotate(-180)"/><path class="g" d="M0,9.324H-4.162V0H0Z" transform="translate(116.885 -123.618) rotate(-180)"/><path class="g" d="M0,9.324H-9.925V0H0Z" transform="translate(122.328 -123.618) rotate(-180)"/><path class="g" d="M0,9.324H-2.881V0H0Z" transform="translate(153.062 -123.618) rotate(-180)"/><path class="g" d="M0,9.324H-8.964V0H0Z" transform="translate(160.105 -123.618) rotate(-180)"/><path class="g" d="M0,9.324H-4.482V0H0Z" transform="translate(174.512 -123.618) rotate(-180)"/><path class="j" d="M0,9.324H-14.727V0H0Z" transform="translate(135.454 -123.618) rotate(-180)"/><path class="j" d="M0,9.324H-8V0H0Z" transform="translate(49.653 -123.618) rotate(-180)"/><path class="k" d="M-43.541,4.662h0A4.666,4.666,0,0,0-38.9,9.324H-4.642A4.666,4.666,0,0,0,0,4.662,4.666,4.666,0,0,0-4.642,0H-38.9a4.666,4.666,0,0,0-4.642,4.662" transform="translate(44.851 -147.253) rotate(-180)"/><path class="k" d="M-98.606,4.662h0a4.666,4.666,0,0,0,4.642,4.662H-4.642A4.666,4.666,0,0,0,0,4.662,4.666,4.666,0,0,0-4.642,0H-93.964a4.666,4.666,0,0,0-4.642,4.662" transform="translate(88.071 -147.253) rotate(-180)"/><path class="j" d="M0,9.323H-13.767V0H0Z" transform="translate(62.779 -147.253) rotate(-180)"/><path class="g" d="M0,9.323H-5.763V0H0Z" transform="translate(96.075 -147.253) rotate(-180)"/><path class="l" d="M0,9.323H-11.526V0H0Z" transform="translate(136.734 -147.253) rotate(-180)"/><path class="g" d="M0,9.323H-10.886V0H0Z" transform="translate(110.162 -147.253) rotate(-180)"/><path class="j" d="M0,9.323H-13.767V0H0Z" transform="translate(122.968 -147.253) rotate(-180)"/><path class="g" d="M0,9.323H-4.482V0H0Z" transform="translate(164.587 -147.253) rotate(-180)"/><path class="g" d="M0,9.323H-6.083V0H0Z" transform="translate(172.271 -147.253) rotate(-180)"/><path class="j" d="M0,9.323H-2.561V0H0Z" transform="translate(57.657 -147.253) rotate(-180)"/><path class="g" d="M-.4,0A3.463,3.463,0,0,0-3.842,3.46v2.4A3.463,3.463,0,0,0-.4,9.323H0V0Z" transform="translate(84.549 -147.253) rotate(-180)"/><path class="i" d="M0,9.323H-1.921V0H0Z" transform="translate(114.324 -147.253) rotate(-180)"/><path class="i" d="M0,9.323H-3.842V0H0Z" transform="translate(141.216 -147.253) rotate(-180)"/><path class="k" d="M-43.541,4.662h0A4.666,4.666,0,0,0-38.9,9.324H-4.642A4.666,4.666,0,0,0,0,4.662,4.666,4.666,0,0,0-4.642,0H-38.9a4.666,4.666,0,0,0-4.642,4.662" transform="translate(44.851 -160.277) rotate(-180)"/><path class="k" d="M-98.606,4.662h0a4.666,4.666,0,0,0,4.642,4.662H-4.642A4.666,4.666,0,0,0,0,4.662,4.666,4.666,0,0,0-4.642,0H-93.964a4.666,4.666,0,0,0-4.642,4.662" transform="translate(88.071 -160.277) rotate(-180)"/><path class="j" d="M0,9.323H-13.767V0H0Z" transform="translate(62.779 -160.278) rotate(-180)"/><path class="g" d="M0,9.323H-5.763V0H0Z" transform="translate(96.075 -160.278) rotate(-180)"/><path class="l" d="M0,9.323H-11.526V0H0Z" transform="translate(136.734 -160.278) rotate(-180)"/><path class="g" d="M0,9.323H-10.886V0H0Z" transform="translate(110.162 -160.278) rotate(-180)"/><path class="j" d="M0,9.323H-13.767V0H0Z" transform="translate(122.968 -160.278) rotate(-180)"/><path class="g" d="M0,9.323H-4.482V0H0Z" transform="translate(164.587 -160.278) rotate(-180)"/><path class="g" d="M0,9.323H-6.083V0H0Z" transform="translate(172.271 -160.278) rotate(-180)"/><path class="j" d="M0,9.323H-2.561V0H0Z" transform="translate(57.657 -160.278) rotate(-180)"/><path class="g" d="M-.4,0A3.463,3.463,0,0,0-3.842,3.46v2.4A3.463,3.463,0,0,0-.4,9.323H0V0Z" transform="translate(84.549 -160.278) rotate(-180)"/><path class="c" d="M0,9.323H-4.8V0H0Z" transform="translate(79.748 -160.278) rotate(-180)"/><path class="c" d="M0,9.323H-2.562V0H0Z" transform="translate(177.073 -160.278) rotate(-180)"/><path class="k" d="M-81.639,4.662h0A4.666,4.666,0,0,0-77,9.325H-4.642A4.666,4.666,0,0,0,0,4.662,4.666,4.666,0,0,0-4.642,0H-77a4.666,4.666,0,0,0-4.642,4.662" transform="translate(106 -183.911) rotate(-180)"/><path class="j" d="M0,9.324H-3.521V0H0Z" transform="translate(117.846 -183.912) rotate(-180)"/><path class="g" d="M0,9.324H-7.684V0H0Z" transform="translate(124.888 -183.912) rotate(-180)"/><path class="j" d="M0,9.324H-3.2V0H0Z" transform="translate(134.493 -183.912) rotate(-180)"/><path class="g" d="M0,9.324H-7.044V0H0Z" transform="translate(161.065 -183.912) rotate(-180)"/><path class="i" d="M0,9.324H-3.842V0H0Z" transform="translate(157.224 -183.912) rotate(-180)"/><path class="j" d="M0,9.324H-14.407V0H0Z" transform="translate(140.256 -183.912) rotate(-180)"/><path class="e" d="M0,9.324H-2.881V0H0Z" transform="translate(177.394 -183.912) rotate(-180)"/><path class="g" d="M-3.445,0A3.463,3.463,0,0,1,0,3.461v2.4A3.463,3.463,0,0,1-3.445,9.324h-5.2V0Z" transform="translate(106 -183.912) rotate(-180)"/><path class="k" d="M-57.947,4.662h0A4.666,4.666,0,0,0-53.3,9.325H-4.642A4.666,4.666,0,0,0,0,4.662,4.666,4.666,0,0,0-4.642,0H-53.3a4.666,4.666,0,0,0-4.642,4.662" transform="translate(48.373 -183.911) rotate(-180)"/><path class="g" d="M0,9.324H-11.205V0H0Z" transform="translate(65.02 -183.912) rotate(-180)"/><path class="e" d="M0,9.324H-1.6V0H0Z" transform="translate(85.83 -183.912) rotate(-180)"/><path class="j" d="M0,9.324H-1.921V0H0Z" transform="translate(55.416 -183.912) rotate(-180)"/><path class="j" d="M0,9.324H-10.245V0H0Z" transform="translate(91.273 -183.912) rotate(-180)"/><path class="c" d="M0,9.324H-3.842V0H0Z" transform="translate(67.581 -183.912) rotate(-180)"/><path class="k" d="M-81.639,4.662h0A4.666,4.666,0,0,0-77,9.325H-4.642A4.666,4.666,0,0,0,0,4.662,4.666,4.666,0,0,0-4.642,0H-77a4.666,4.666,0,0,0-4.642,4.662" transform="translate(106 -196.936) rotate(-180)"/><path class="j" d="M0,9.324H-3.521V0H0Z" transform="translate(117.846 -196.936) rotate(-180)"/><path class="g" d="M0,9.324H-7.684V0H0Z" transform="translate(124.888 -196.936) rotate(-180)"/><path class="j" d="M0,9.324H-3.2V0H0Z" transform="translate(134.493 -196.936) rotate(-180)"/><path class="g" d="M0,9.324H-7.044V0H0Z" transform="translate(161.065 -196.936) rotate(-180)"/><path class="i" d="M0,9.324H-3.842V0H0Z" transform="translate(157.224 -196.936) rotate(-180)"/><path class="j" d="M0,9.324H-14.407V0H0Z" transform="translate(140.256 -196.936) rotate(-180)"/><path class="e" d="M0,9.324H-2.881V0H0Z" transform="translate(177.394 -196.936) rotate(-180)"/><path class="g" d="M-3.445,0A3.463,3.463,0,0,1,0,3.461v2.4A3.463,3.463,0,0,1-3.445,9.324h-5.2V0Z" transform="translate(106 -196.936) rotate(-180)"/><path class="k" d="M-57.947,4.662h0A4.666,4.666,0,0,0-53.3,9.325H-4.642A4.666,4.666,0,0,0,0,4.662,4.666,4.666,0,0,0-4.642,0H-53.3a4.666,4.666,0,0,0-4.642,4.662" transform="translate(48.373 -196.936) rotate(-180)"/><path class="g" d="M0,9.324H-11.205V0H0Z" transform="translate(65.02 -196.936) rotate(-180)"/><path class="e" d="M0,9.324H-1.6V0H0Z" transform="translate(85.83 -196.936) rotate(-180)"/><path class="e" d="M0,9.324H-1.921V0H0Z" transform="translate(55.416 -196.936) rotate(-180)"/><path class="j" d="M0,9.324H-10.245V0H0Z" transform="translate(91.273 -196.936) rotate(-180)"/><path class="c" d="M0,9.324H-3.841V0H0Z" transform="translate(65.34 -196.936) rotate(-180)"/><path class="i" d="M0,9.324H-6.4V0H0Z" transform="translate(52.535 -196.936) rotate(-180)"/><path class="k" d="M-75.556,4.662h0a4.666,4.666,0,0,0,4.642,4.662H-4.642A4.666,4.666,0,0,0,0,4.662,4.666,4.666,0,0,0-4.642,0H-70.913a4.666,4.666,0,0,0-4.642,4.662" transform="translate(115.284 -220.571) rotate(-180)"/><path class="j" d="M0,9.323H-14.727V0H0Z" transform="translate(126.489 -220.571) rotate(-180)"/><path class="c" d="M0,9.323H-5.123V0H0Z" transform="translate(124.568 -220.571) rotate(-180)"/><path class="g" d="M0,9.323H-7.684V0H0Z" transform="translate(143.137 -220.571) rotate(-180)"/><path class="g" d="M0,9.323H-2.881V0H0Z" transform="translate(172.271 -220.571) rotate(-180)"/><path class="e" d="M0,9.323H-4.8V0H0Z" transform="translate(158.505 -220.571) rotate(-180)"/><path class="e" d="M0,9.323H-2.561V0H0Z" transform="translate(179.635 -220.571) rotate(-180)"/><path class="k" d="M-48.983,4.662h0a4.666,4.666,0,0,0,4.642,4.662h39.7A4.666,4.666,0,0,0,0,4.662,4.666,4.666,0,0,0-4.642,0h-39.7a4.666,4.666,0,0,0-4.642,4.662" transform="translate(66.621 -220.571) rotate(-180)"/><path class="g" d="M0,9.323H-13.447V0H0Z" transform="translate(74.624 -220.571) rotate(-180)"/><path class="j" d="M0,9.323H-4.161V0H0Z" transform="translate(98.316 -220.571) rotate(-180)"/><path class="j" d="M0,9.323H-3.522V0H0Z" transform="translate(107.281 -220.571) rotate(-180)"/><path class="k" d="M-75.556,4.662h0a4.666,4.666,0,0,0,4.642,4.662H-4.642A4.666,4.666,0,0,0,0,4.662,4.666,4.666,0,0,0-4.642,0H-70.913a4.666,4.666,0,0,0-4.642,4.662" transform="translate(115.284 -233.595) rotate(-180)"/><path class="j" d="M0,9.323H-14.727V0H0Z" transform="translate(126.489 -233.596) rotate(-180)"/><path class="c" d="M0,9.323H-6.083V0H0Z" transform="translate(118.806 -233.596) rotate(-180)"/><path class="g" d="M0,9.323H-7.684V0H0Z" transform="translate(143.137 -233.596) rotate(-180)"/><path class="g" d="M0,9.323H-2.881V0H0Z" transform="translate(172.271 -233.596) rotate(-180)"/><path class="e" d="M0,9.323H-4.8V0H0Z" transform="translate(158.505 -233.596) rotate(-180)"/><path class="e" d="M0,9.323H-2.561V0H0Z" transform="translate(179.635 -233.596) rotate(-180)"/><path class="k" d="M-48.983,4.662h0a4.666,4.666,0,0,0,4.642,4.662h39.7A4.666,4.666,0,0,0,0,4.662,4.666,4.666,0,0,0-4.642,0h-39.7a4.666,4.666,0,0,0-4.642,4.662" transform="translate(66.621 -233.595) rotate(-180)"/><path class="g" d="M0,9.323H-13.447V0H0Z" transform="translate(74.624 -233.596) rotate(-180)"/><path class="j" d="M0,9.323H-4.161V0H0Z" transform="translate(98.316 -233.596) rotate(-180)"/><path class="j" d="M0,9.323H-3.522V0H0Z" transform="translate(107.281 -233.596) rotate(-180)"/></g></g><path class="m" d="M0,0,17.564,17.564H98" transform="translate(96 141)"/><path class="m" d="M0,0,17.564,17.564H188" transform="translate(6 225)"/><path class="m" d="M0,0,17.564,17.564H137" transform="translate(57 331)"/><circle class="h" cx="2.5" cy="2.5" r="2.5" transform="translate(193 156)"/><circle class="h" cx="2.5" cy="2.5" r="2.5" transform="translate(193 240)"/><circle class="h" cx="2.5" cy="2.5" r="2.5" transform="translate(193 346)"/></g></svg>