<svg xmlns="http://www.w3.org/2000/svg" viewBox="0 0 31.201 30.707"><defs><style>.a{fill:none;stroke:#777;stroke-miterlimit:10;stroke-width:2px;}</style></defs><g transform="translate(-219 -503.293)"><path class="a" d="M8.474,0H0L8.474,8.474Z" transform="translate(240.727 504.293)"/><path class="a" d="M.233,9.223,8.9.56S3.6,3.6,0,0" transform="translate(224.63 524.07)"/><path class="a" d="M0,0,1.687,1.687" transform="translate(221.097 519.607)"/><path class="a" d="M0,0H2.386" transform="translate(219 524.669)"/><path class="a" d="M0,1.687,1.687,0" transform="translate(221.097 528.045)"/><path class="a" d="M10.17,0H0" transform="translate(232.678 515.307)"/><path class="a" d="M10.17,0H0" transform="translate(228.44 519.545)"/><path class="a" d="M5.085,18.646,0,13.561,13.561,0l5.085,5.085Z" transform="translate(228.44 505.984)"/><path class="a" d="M10.171,0H0" transform="translate(236.915 511.07)"/></g></svg>