<svg xmlns="http://www.w3.org/2000/svg" xmlns:xlink="http://www.w3.org/1999/xlink" viewBox="0 0 108.225 20.868"><defs><style>.a{fill:none;}.b{fill:#0085fe;}.c{clip-path:url(#a);}.d{clip-path:url(#b);}</style><clipPath id="a"><path class="a" d="M0,0H7.257V20.663H0Z" transform="translate(0 0.075)"/></clipPath><clipPath id="b"><path class="a" d="M0,20.868H108.225V0H0Z" transform="translate(0 0)"/></clipPath></defs><g transform="translate(-233 -647)"><path class="b" d="M4.343,20.732C3.2,20.732,2.3,20.17,2.2,19.4L.013,2.408A1.8,1.8,0,0,1,.437,1.044,3.037,3.037,0,0,1,2.448.023,3.6,3.6,0,0,1,2.852,0a2.307,2.307,0,0,1,2.5,1.817l.852,10c.083.972-.917,1.841-2.277,1.977a3.513,3.513,0,0,1-.351.018A3.064,3.064,0,0,1,2.4,13.587l.265,2.057a3.138,3.138,0,0,1,1.415-.484c.115-.011.231-.016.346-.016,1.2,0,2.119.6,2.19,1.437l.2,2.378c.074.867-.869,1.639-2.147,1.757C4.557,20.726,4.447,20.732,4.343,20.732Zm-1.348-2.5.137,1.055c.034.265.529.549,1.211.549.078,0,.158,0,.236-.011.78-.073,1.333-.478,1.307-.792L5.793,17.96a3.1,3.1,0,0,1-1.371.45c-.123.01-.235.015-.334.015A3.017,3.017,0,0,1,2.994,18.231Zm1.428-2.191a2.337,2.337,0,0,0-.252.012,2.037,2.037,0,0,0-1.093.412,1.151,1.151,0,0,0-.125.122.45.45,0,0,0-.126.342.649.649,0,0,0,.4.422,1.947,1.947,0,0,0,.864.179c.082,0,.161,0,.241-.012a2.117,2.117,0,0,0,1.05-.375.618.618,0,0,0,.3-.488.588.588,0,0,0-.343-.409A1.911,1.911,0,0,0,4.423,16.041ZM1.14,3.849l1.077,8.357c.052.4.65.712,1.362.712a2.441,2.441,0,0,0,.255-.014c.894-.089,1.478-.605,1.443-1.012L4.56,3.475A3.249,3.249,0,0,1,2.9,4.133a3.529,3.529,0,0,1-.391.022A3.114,3.114,0,0,1,1.14,3.849ZM2.852.9a2.666,2.666,0,0,0-.293.016A2.121,2.121,0,0,0,1.172,1.6a1.12,1.12,0,0,0-.154.245A.818.818,0,0,0,.94,2.3a.827.827,0,0,0,.2.432,1.831,1.831,0,0,0,1.372.53,2.466,2.466,0,0,0,.282-.016A1.981,1.981,0,0,0,4.315,2.37a.849.849,0,0,0,.111-.479.825.825,0,0,0-.164-.418A1.762,1.762,0,0,0,2.852.9Z" transform="translate(260.86 647.041)"/><path class="b" d="M.163,0A.541.541,0,0,0,0,.347.543.543,0,0,1,.163,0" transform="translate(253.723 651.837)"/><path class="b" d="M0,0A.538.538,0,0,1,.163.345.538.538,0,0,0,0,0" transform="translate(256.225 651.837)"/><path class="b" d="M0,0A.932.932,0,0,1,.113.1.932.932,0,0,0,0,0" transform="translate(256.113 651.736)"/><path class="b" d="M0,.1A.979.979,0,0,1,.113,0,.935.935,0,0,0,0,.1" transform="translate(253.886 651.736)"/><path class="b" d="M2.512,20.807a2.766,2.766,0,0,1-1.933-.733A1.821,1.821,0,0,1,0,18.741l.31-17.17C.326.69,1.293,0,2.512,0s2.186.69,2.2,1.57l.31,17.17a1.817,1.817,0,0,1-.578,1.333A2.771,2.771,0,0,1,2.512,20.807Zm0-3.178a1.7,1.7,0,0,0-1.436.671.866.866,0,0,0-.142.455.845.845,0,0,0,.116.441,1.2,1.2,0,0,0,.193.249,1.813,1.813,0,0,0,1.268.464,1.814,1.814,0,0,0,1.269-.465,1.181,1.181,0,0,0,.194-.248.845.845,0,0,0,.116-.441.866.866,0,0,0-.142-.455A1.7,1.7,0,0,0,2.512,17.629Zm0-4.073c-.8,0-1.492.464-1.5,1.014l-.049,2.6a2.938,2.938,0,0,1,1.552-.439,2.889,2.889,0,0,1,1.551.438l-.047-2.6C4.006,14.02,3.317,13.556,2.512,13.556ZM1.154,6.547l-.119,6.5a2.886,2.886,0,0,1,1.477-.388,2.905,2.905,0,0,1,1.476.387l-.117-6.5a2.824,2.824,0,0,1-1.359.331A2.841,2.841,0,0,1,1.154,6.547ZM2.512,4.415a1.777,1.777,0,0,0-1.057.321,1.019,1.019,0,0,0-.113.1.545.545,0,0,0-.162.35.012.012,0,0,0,0,.005.562.562,0,0,0,.19.4.28.28,0,0,0,.035.03l.014.012a1.688,1.688,0,0,0,1.094.351,1.689,1.689,0,0,0,1.1-.351l.013-.012a.28.28,0,0,0,.035-.03.565.565,0,0,0,.19-.4V5.182a.548.548,0,0,0-.163-.346.9.9,0,0,0-.112-.1A1.779,1.779,0,0,0,2.512,4.415ZM2.512.9c-.74,0-1.263.364-1.269.691L1.2,3.821a2.9,2.9,0,0,1,1.311-.3,2.879,2.879,0,0,1,1.309.3l-.04-2.234C3.775,1.26,3.253.9,2.512.9Z" transform="translate(252.544 647)"/><path class="b" d="M3.4,20.8c-1.247,0-2.226-.606-2.277-1.409L0,2.307A1.846,1.846,0,0,1,.536.923,3.216,3.216,0,0,1,2.756,0l.151,0C4.452,0,5.669.922,5.678,2.1l.076,10.706c.007.953-1.076,1.734-2.465,1.778l-.121,0a3.323,3.323,0,0,1-1.444-.311l.13,1.976a3.313,3.313,0,0,1,1.482-.383l.12,0c1.322,0,2.323.658,2.33,1.53L5.8,19.249c.005.846-.978,1.511-2.288,1.548C3.477,20.8,3.44,20.8,3.4,20.8ZM2.019,18.75h0l.039.584c.015.238.535.569,1.346.569h.081c.846-.024,1.383-.4,1.382-.646l0-.595a3.308,3.308,0,0,1-1.415.347c-.039,0-.077,0-.113,0a3.275,3.275,0,0,1-1.318-.26Zm1.436-1.988-.087,0a2.315,2.315,0,0,0-1.079.278,1.077,1.077,0,0,0-.229.176.367.367,0,0,0-.124.268c.011.158.186.326.47.449a2.392,2.392,0,0,0,.928.179l.085,0a2.388,2.388,0,0,0,1-.239c.273-.139.436-.316.434-.472,0-.141-.145-.3-.386-.426A2.2,2.2,0,0,0,3.455,16.762ZM1.04,3.846l.6,9.067c.025.376.644.778,1.525.778l.079,0h.019c.924-.03,1.565-.485,1.562-.876l-.064-9.1a3.433,3.433,0,0,1-1.841.589l-.138,0a3.391,3.391,0,0,1-1.739-.464ZM2.9.9h-.11a2.294,2.294,0,0,0-1.563.626,1.193,1.193,0,0,0-.2.285.858.858,0,0,0-.094.441A.887.887,0,0,0,1.1,2.7a2.062,2.062,0,0,0,1.667.712l.111,0a2.1,2.1,0,0,0,1.73-.838.9.9,0,0,0,.133-.467.849.849,0,0,0-.124-.43A2.006,2.006,0,0,0,2.9.9Z" transform="translate(242.942 647.007)"/><path class="a" d="M0,0H7.257V20.663H0Z" transform="translate(233 647.075)"/><g class="c" transform="translate(233 647)"><path class="b" d="M2.742,20.663a3.334,3.334,0,0,1-.432-.029A2.843,2.843,0,0,1,.423,19.6a1.932,1.932,0,0,1-.4-1.512l.629-3.6A2.258,2.258,0,0,1,3.02,12.845a3.245,3.245,0,0,1,.426.029,2.944,2.944,0,0,1,1.478.623l.248-2.105a2.838,2.838,0,0,1-1.107.219,3.143,3.143,0,0,1-.429-.03,2.666,2.666,0,0,1-1.778-.949,1.532,1.532,0,0,1-.32-1.2L2.979,1.2C3.1.491,3.892,0,4.9,0a3.211,3.211,0,0,1,.424.029C6.5.187,7.347.952,7.25,1.77L5.238,18.788A2.371,2.371,0,0,1,2.742,20.663Zm-.23-3.46a1.7,1.7,0,0,0-1.369.59,1.014,1.014,0,0,0-.2.439.955.955,0,0,0,.028.444,1.2,1.2,0,0,0,.2.39,1.9,1.9,0,0,0,1.264.68,2.376,2.376,0,0,0,.3.021,1.664,1.664,0,0,0,1.412-.662.978.978,0,0,0,.156-.42.993.993,0,0,0-.064-.472,1.749,1.749,0,0,0-1.436-.99A2.244,2.244,0,0,0,2.513,17.2Zm0-.9a3,3,0,0,1,.427.029,2.944,2.944,0,0,1,1.565.688l.234-1.966c.071-.6-.567-1.183-1.422-1.3a2.3,2.3,0,0,0-.3-.02,1.357,1.357,0,0,0-1.445.892l-.342,1.958A2.948,2.948,0,0,1,2.513,16.308Zm1.22-7.435a1.672,1.672,0,0,0-.983.286.689.689,0,0,0-.292.425.632.632,0,0,0,.109.455c.014.023.03.043.044.062a1.744,1.744,0,0,0,1.154.591,2.324,2.324,0,0,0,.3.022,1.6,1.6,0,0,0,1.04-.333.651.651,0,0,0,.236-.41.677.677,0,0,0-.157-.484,1.777,1.777,0,0,0-1.155-.595A2.035,2.035,0,0,0,3.733,8.873Zm0-.9a3.353,3.353,0,0,1,.426.029,2.894,2.894,0,0,1,1.35.532L6.323,1.67C6.355,1.39,5.88,1.009,5.2.916A2.292,2.292,0,0,0,4.9.9c-.571,0-.966.232-1,.447L2.708,8.158A2.905,2.905,0,0,1,3.733,7.977Z" transform="translate(0 0.075)"/></g><path class="a" d="M0,20.868H108.225V0H0Z" transform="translate(233 647)"/><g class="d" transform="translate(233 647)"><path class="b" d="M9.412,12.638H2.558A1.956,1.956,0,0,1,.518,10.729V3.842H.089A.089.089,0,0,1,.009,3.8a.08.08,0,0,1,.005-.084L2.378.158A.358.358,0,0,1,2.678,0H4.853a.09.09,0,0,1,.08.047.081.081,0,0,1,0,.085L4.561.683h5.474a.175.175,0,0,1,.178.171V2.193a.33.33,0,0,1-.07.2c-.21.271-.633.808-1.118,1.362h2.166a.174.174,0,0,1,.177.17V8.283a.174.174,0,0,1-.177.171H2.652V10.3a.35.35,0,0,0,.356.342h6.4a.346.346,0,0,0,.041,0,1.435,1.435,0,0,0,.16-.73h2.135a3.1,3.1,0,0,1-.731,2.127A2.133,2.133,0,0,1,9.412,12.638Zm-2.4-7.173V6.746H9.234V5.465Zm-4.359,0V6.746H4.875V5.465Zm.83-3.16L2.516,3.758H6.365a12.693,12.693,0,0,0,1.2-1.128l0,0,.015-.015L7.6,2.6c.1-.1.194-.2.285-.291h-4.4Z" transform="translate(56.425 0.938)"/><path class="b" d="M9.607,5.038H.177A.174.174,0,0,1,0,4.868V.171A.174.174,0,0,1,.177,0H9.607a.175.175,0,0,1,.178.171v4.7A.174.174,0,0,1,9.607,5.038Zm-7.472-3.5V3.5H7.65V1.537Z" transform="translate(42.533 8.538)"/><path class="b" d="M12.364,7.744h-.016a33.078,33.078,0,0,1-6.257-1.1A31.74,31.74,0,0,1,.2,7.71H.176a.178.178,0,0,1-.124-.05A.167.167,0,0,1,0,7.54V5.994a.173.173,0,0,1,.158-.169c.893-.091,2.225-.251,3.5-.5a11.274,11.274,0,0,1-1.521-1.48H.46A.088.088,0,0,1,.381,3.8a.082.082,0,0,1,0-.085L2.75.158A.355.355,0,0,1,3.049,0H5.225A.088.088,0,0,1,5.3.046a.082.082,0,0,1,0,.085L4.932.683h5.919a.174.174,0,0,1,.177.171V2.3a.333.333,0,0,1-.05.177A12.77,12.77,0,0,1,8.51,5.315c1.644.327,3.379.5,3.871.544a.174.174,0,0,1,.161.171V7.574A.174.174,0,0,1,12.364,7.744ZM3.8,2.391l-.163.245A7.63,7.63,0,0,0,6.092,4.623,7.509,7.509,0,0,0,8.671,2.391H3.8Z" transform="translate(41.199 0.938)"/><path class="b" d="M4.546,12.09H.177A.174.174,0,0,1,0,11.919V.171A.174.174,0,0,1,.177,0H4.546A4.686,4.686,0,0,1,7.871,1.155C9.168,2.4,9.157,3.925,9.147,5.54c0,.15,0,.3,0,.454s0,.3,0,.454c.011,1.667.021,3.242-1.275,4.487A4.686,4.686,0,0,1,4.546,12.09ZM2.459,2.105h0V9.985H4.315a2.246,2.246,0,0,0,1.84-.748c.457-.539.531-1.4.531-3.243,0-1.888-.077-2.606-.531-3.141a2.248,2.248,0,0,0-1.84-.748H2.459Z" transform="translate(71.474 1.505)"/><path class="b" d="M7.341,11.933,2.458,4.669v7.25a.174.174,0,0,1-.178.171H.178A.175.175,0,0,1,0,11.919V.171A.174.174,0,0,1,.178,0H2a.358.358,0,0,1,.3.155L7.181,7.4V.171A.174.174,0,0,1,7.359,0h2.1a.174.174,0,0,1,.178.171V11.919a.174.174,0,0,1-.178.171H7.64a.36.36,0,0,1-.3-.156" transform="translate(84.545 1.506)"/><path class="b" d="M10.942,12.089H8.762a.354.354,0,0,1-.337-.233L7.763,9.95H3.287l-.678,1.909a.355.355,0,0,1-.337.23H.089a.09.09,0,0,1-.074-.038.081.081,0,0,1-.009-.075L4.479.168A.268.268,0,0,1,4.73,0H6.285a.268.268,0,0,1,.25.168l4.491,11.807a.079.079,0,0,1-.009.075A.09.09,0,0,1,10.942,12.089ZM5.568,3.566l-1.591,4.4h3.13Z" transform="translate(97.194 1.505)"/><path class="b" d="M1.74,4.626H.068A.066.066,0,0,1,0,4.561V.065A.067.067,0,0,1,.068,0H1.74A1.8,1.8,0,0,1,3.012.442,2.061,2.061,0,0,1,3.5,2.123c0,.057,0,.114,0,.171s0,.114,0,.171a2.126,2.126,0,0,1-.489,1.72A1.8,1.8,0,0,1,1.74,4.626ZM.941.805V3.82h.711a.861.861,0,0,0,.7-.285c.174-.207.2-.535.2-1.241,0-.722-.029-1-.2-1.2a.862.862,0,0,0-.7-.286Z" transform="translate(83.455 16.181)"/><path class="b" d="M2.81,4.567.941,1.787V4.561a.067.067,0,0,1-.068.065H.068A.066.066,0,0,1,0,4.561V.065A.066.066,0,0,1,.068,0h.7A.138.138,0,0,1,.88.059L2.749,2.833V.065A.066.066,0,0,1,2.816,0h.8a.066.066,0,0,1,.068.065v4.5a.066.066,0,0,1-.068.065h-.7a.138.138,0,0,1-.114-.059" transform="translate(93.785 16.181)"/><path class="b" d="M4.189,4.627H3.353a.137.137,0,0,1-.13-.089l-.253-.73H1.258L1,4.539a.137.137,0,0,1-.13.088H.034a.034.034,0,0,1-.028-.014.033.033,0,0,1,0-.03L1.714.064A.1.1,0,0,1,1.811,0h.595a.1.1,0,0,1,.1.064L4.22,4.583a.032.032,0,0,1,0,.03A.034.034,0,0,1,4.189,4.627ZM2.131,1.364,1.522,3.047h1.2Z" transform="translate(103.943 16.181)"/><path class="b" d="M1.909,4.8A1.867,1.867,0,0,1,0,2.971V1.831A1.848,1.848,0,0,1,1.649.013,1.89,1.89,0,0,1,3.614,1.125a.083.083,0,0,1-.051.111l-.733.248a.087.087,0,0,1-.107-.045A.938.938,0,0,0,1.777.916a.918.918,0,0,0-.828.906V2.98a.921.921,0,0,0,.891.912A.913.913,0,0,0,2.8,3v-.03H1.941a.085.085,0,0,1-.086-.083V2.144a.085.085,0,0,1,.086-.083H3.666a.084.084,0,0,1,.086.083V3A1.841,1.841,0,0,1,1.909,4.8" transform="translate(41.632 16.065)"/><path class="b" d="M2.846.828V.083A.084.084,0,0,0,2.761,0H.086A.085.085,0,0,0,0,.083V4.555a.085.085,0,0,0,.086.083H2.761a.084.084,0,0,0,.086-.083V3.809a.084.084,0,0,0-.086-.083H.949V2.816H2.761a.084.084,0,0,0,.086-.082V1.988A.084.084,0,0,0,2.761,1.9H.949V.911H2.761A.084.084,0,0,0,2.846.828" transform="translate(52.509 16.148)"/><path class="b" d="M3.019.828V.083A.084.084,0,0,0,2.933,0H.086A.085.085,0,0,0,0,.083V4.555a.085.085,0,0,0,.086.083H2.933a.084.084,0,0,0,.086-.083V3.809a.084.084,0,0,0-.086-.083H.949V2.816H2.933a.084.084,0,0,0,.086-.082V1.988A.084.084,0,0,0,2.933,1.9H.949V.911H2.933A.084.084,0,0,0,3.019.828" transform="translate(73.271 16.148)"/><path class="b" d="M1.7,4.72A1.766,1.766,0,0,1,.012,3.938a.082.082,0,0,1,.034-.117l.685-.349A.088.088,0,0,1,.846,3.5c.092.146.264.307.854.307.448,0,.927-.13.927-.5,0-.215-.349-.471-.852-.495l-.052,0A1.509,1.509,0,0,1,.085,1.408,1.524,1.524,0,0,1,1.789,0,2.229,2.229,0,0,1,3.372.69a.081.081,0,0,1,0,.119l-.546.53a.09.09,0,0,1-.121,0A1.256,1.256,0,0,0,1.789.911c-.459,0-.755.195-.755.5s.272.48.7.5l.113.005.028,0c.975.065,1.7.661,1.7,1.4,0,.7-.58,1.408-1.876,1.408" transform="translate(62.568 16.148)"/></g></g></svg>