<svg xmlns="http://www.w3.org/2000/svg" viewBox="0 0 37 23.125"><defs><style>.a{fill:#fff;}</style></defs><g transform="translate(-15 -51)"><path class="a" d="M23.532,23.125a2.892,2.892,0,0,1-2.064-.815,2.064,2.064,0,0,1-.616-1.481l.33-19.083C21.2.767,22.232,0,23.532,0s2.333.767,2.349,1.746l.33,19.083A2.059,2.059,0,0,1,25.6,22.31,2.892,2.892,0,0,1,23.532,23.125Zm0-3.532A1.789,1.789,0,0,0,22,20.339a1,1,0,0,0-.152.507.943.943,0,0,0,.124.49,1.357,1.357,0,0,0,.206.277,2.03,2.03,0,0,0,2.707,0,1.326,1.326,0,0,0,.206-.276.947.947,0,0,0,.124-.49,1.013,1.013,0,0,0-.152-.507A1.789,1.789,0,0,0,23.532,19.594Zm0-4.528c-.859,0-1.593.516-1.6,1.127l-.052,2.893a3.053,3.053,0,0,1,3.309,0l-.05-2.893C25.125,15.582,24.391,15.066,23.532,15.066Zm-1.449-7.79L21.956,14.5a3.023,3.023,0,0,1,1.577-.43,2.992,2.992,0,0,1,1.574.429l-.125-7.224a2.865,2.865,0,0,1-1.449.369A2.9,2.9,0,0,1,22.083,7.276Zm1.449-2.368a1.857,1.857,0,0,0-1.128.355.986.986,0,0,0-.121.113.684.684,0,0,0-.149.248l0,.006,0,.005a.551.551,0,0,0-.02.126l0,.008a.642.642,0,0,0,.2.445l.023.021.009.008.007.005.005,0,.005.005a1.944,1.944,0,0,0,2.337,0l.014-.012.01-.008.009-.008.018-.016a.642.642,0,0,0,.2-.449V5.748a.307.307,0,0,0,0-.041.2.2,0,0,1,0-.022V5.675a.046.046,0,0,1-.005-.017V5.652l0-.01,0-.006,0-.006,0-.006,0-.006,0-.008,0-.01,0-.006a.128.128,0,0,1-.007-.016l0-.008L24.9,5.552l-.005-.011,0-.01-.008-.014a.769.769,0,0,0-.1-.141,1.04,1.04,0,0,0-.121-.113A1.851,1.851,0,0,0,23.532,4.908Zm0-3.911c-.789,0-1.347.4-1.354.768l-.045,2.484a3.076,3.076,0,0,1,2.8,0l-.043-2.484C24.88,1.4,24.322,1,23.532,1ZM14.239,23.124c-1.329,0-2.373-.673-2.429-1.566l-1.2-18.986a2.08,2.08,0,0,1,.569-1.538A3.358,3.358,0,0,1,13.549.011c.053,0,.107,0,.159,0,1.649,0,2.948,1.025,2.957,2.335l.082,11.9c.007,1.06-1.148,1.928-2.631,1.976l-.129,0a3.325,3.325,0,0,1-1.539-.347l.138,2.2a3.335,3.335,0,0,1,1.582-.425c.044,0,.087,0,.13,0,1.409,0,2.477.731,2.483,1.7L16.8,21.4c.005.939-1.044,1.678-2.441,1.721Zm-1.477-2.278.04.649c.017.264.572.633,1.436.633h.087c.9-.028,1.476-.444,1.474-.718l0-.662a3.357,3.357,0,0,1-1.509.386l-.12,0A3.364,3.364,0,0,1,12.762,20.846Zm1.533-2.21-.094,0a2.333,2.333,0,0,0-1.151.31,1.318,1.318,0,0,0-.243.2.421.421,0,0,0-.133.3c.012.175.2.362.5.5a2.378,2.378,0,0,0,.989.2l.084,0a2.537,2.537,0,0,0,1.077-.266c.291-.155.464-.351.463-.525,0-.154-.159-.336-.413-.473A2.332,2.332,0,0,0,14.295,18.635ZM11.717,4.282l.635,10.077c.026.417.687.864,1.628.864l.1,0c.987-.032,1.671-.539,1.669-.974L15.683,4.14A3.563,3.563,0,0,1,13.72,4.8l-.148,0A3.474,3.474,0,0,1,11.717,4.282ZM13.7,1l-.117,0a2.4,2.4,0,0,0-1.667.7,1.374,1.374,0,0,0-.216.318.926.926,0,0,0-.1.49,1.12,1.12,0,0,0,.181.5,2.168,2.168,0,0,0,1.778.79l.118,0a2.205,2.205,0,0,0,1.846-.931.972.972,0,0,0,.143-.519,1,1,0,0,0-.133-.478A2.108,2.108,0,0,0,13.7,1ZM34.358,23.086c-1.215,0-2.174-.624-2.281-1.484L29.739,2.721a2.052,2.052,0,0,1,.452-1.516A3.2,3.2,0,0,1,32.336.071a3.671,3.671,0,0,1,.431-.025,2.48,2.48,0,0,1,2.671,2.02l.909,11.115c.088,1.081-.979,2.047-2.429,2.2a3.512,3.512,0,0,1-.375.021,3.173,3.173,0,0,1-1.262-.253l.283,2.286a3.265,3.265,0,0,1,1.509-.537,3.655,3.655,0,0,1,.37-.019c1.278,0,2.261.672,2.336,1.6L37,21.117c.079.963-.927,1.821-2.291,1.952C34.583,23.08,34.466,23.086,34.358,23.086ZM32.92,20.307l.145,1.173c.036.295.564.61,1.292.61.069,0,.154,0,.251-.013.833-.08,1.423-.531,1.394-.88l-.1-1.191a3.226,3.226,0,0,1-1.463.5c-.132.012-.252.018-.357.018A3.15,3.15,0,0,1,32.92,20.307Zm1.523-2.434a2.678,2.678,0,0,0-.268.014,2.115,2.115,0,0,0-1.166.458,1.137,1.137,0,0,0-.133.136.509.509,0,0,0-.134.38.7.7,0,0,0,.424.469,2.023,2.023,0,0,0,.921.2,2.5,2.5,0,0,0,.258-.014,2.2,2.2,0,0,0,1.12-.417.692.692,0,0,0,.322-.543.647.647,0,0,0-.365-.455A2,2,0,0,0,34.443,17.872ZM30.94,4.324l1.15,9.288c.055.444.693.791,1.453.791a2.363,2.363,0,0,0,.272-.014c.953-.1,1.577-.674,1.54-1.126L34.59,3.907a3.35,3.35,0,0,1-1.769.732,3.525,3.525,0,0,1-.416.024A3.211,3.211,0,0,1,30.94,4.324Zm1.827-3.282a2.624,2.624,0,0,0-.313.019,2.234,2.234,0,0,0-1.48.759,1.3,1.3,0,0,0-.164.272.907.907,0,0,0,.13.986,1.907,1.907,0,0,0,1.463.59,2.734,2.734,0,0,0,.3-.017,2.1,2.1,0,0,0,1.623-.971.969.969,0,0,0,.118-.533.916.916,0,0,0-.176-.464A1.838,1.838,0,0,0,32.767,1.041ZM2.926,23.048a2.953,2.953,0,0,1-.461-.032A3,3,0,0,1,.452,21.863a2.214,2.214,0,0,1-.423-1.681l.671-4a2.42,2.42,0,0,1,2.522-1.822,2.881,2.881,0,0,1,.455.032,3.063,3.063,0,0,1,1.576.692l.265-2.341a2.9,2.9,0,0,1-1.182.243,2.822,2.822,0,0,1-.458-.032,2.819,2.819,0,0,1-1.9-1.054,1.774,1.774,0,0,1-.341-1.329L3.178,1.411A1.905,1.905,0,0,1,5.231.084a2.862,2.862,0,0,1,.453.032C6.938.292,7.839,1.142,7.736,2.051L5.588,20.963A2.55,2.55,0,0,1,2.926,23.048ZM2.68,19.2a1.782,1.782,0,0,0-1.46.657,1.115,1.115,0,0,0-.18.98,1.385,1.385,0,0,0,.214.434,2.006,2.006,0,0,0,1.349.755,1.645,1.645,0,0,0,.322.022,1.752,1.752,0,0,0,1.507-.734A1.1,1.1,0,0,0,4.6,20.85a1.146,1.146,0,0,0-.067-.525A1.877,1.877,0,0,0,3,19.225,2.132,2.132,0,0,0,2.68,19.2Zm0-1a2.872,2.872,0,0,1,.456.032,3.1,3.1,0,0,1,1.669.766l.25-2.185c.076-.667-.605-1.314-1.517-1.443a1.619,1.619,0,0,0-.317-.023,1.446,1.446,0,0,0-1.54.992l-.365,2.176A3.041,3.041,0,0,1,2.68,18.207Zm1.3-8.263a1.738,1.738,0,0,0-1.049.319.775.775,0,0,0-.311.472.745.745,0,0,0,.116.506l.009.013,0,.007c.011.017.022.033.033.05a1.852,1.852,0,0,0,1.231.657,1.638,1.638,0,0,0,.319.023,1.675,1.675,0,0,0,1.11-.369.722.722,0,0,0,.251-.455.769.769,0,0,0-.167-.539A1.87,1.87,0,0,0,4.3,9.967,1.594,1.594,0,0,0,3.983,9.944Zm0-1c.108,0,.261.011.455.031a3.025,3.025,0,0,1,1.439.592l.869-7.633c.035-.31-.471-.734-1.2-.838a2.1,2.1,0,0,0-.314-.022c-.61,0-1.031.257-1.07.5L2.889,9.15A2.922,2.922,0,0,1,3.983,8.949Z" transform="translate(15 51)"/></g></svg>