<svg id="图层_1" data-name="图层 1" xmlns="http://www.w3.org/2000/svg" viewBox="0 0 25 20.36"><title>wechat2</title><path d="M2.66,16.16h0l.88-2.66C1.19,11.86,0,9.85,0,7.53A7,7,0,0,1,2.6,2.18,9.66,9.66,0,0,1,8.85,0a10.3,10.3,0,0,1,5.81,1.77,7.42,7.42,0,0,1,3.12,4.44,8.24,8.24,0,0,0-.85,0,7.3,7.3,0,0,0-7.53,7A6.42,6.42,0,0,0,9.67,15c-.32,0-.59,0-.82,0a12,12,0,0,1-2.6-.34l-.5-.1L2.66,16.16Zm9.51-12.4a1.44,1.44,0,0,0-1,.41,1,1,0,0,0-.3.7A1.24,1.24,0,0,0,12.16,6a1,1,0,0,0,1.11-1V4.87a1.05,1.05,0,0,0-1-1.11ZM6,3.76A1.24,1.24,0,0,0,4.64,4.87,1.23,1.23,0,0,0,6,6,1,1,0,0,0,7.08,5V4.87a1.06,1.06,0,0,0-1-1.11Z" transform="translate(0 0)" fill="#0085ff"/><path d="M22.57,20.36h0L20.14,19h0a11.47,11.47,0,0,1-2.65.44,8.21,8.21,0,0,1-5.35-1.88A6,6,0,0,1,10,13.06a6,6,0,0,1,2.18-4.54,8.4,8.4,0,0,1,10.59,0A5.93,5.93,0,0,1,25,13.06c0,1.78-1.1,3.59-3.1,5.09l.66,2.21ZM19.91,10.18a1,1,0,0,0-.88.89,1,1,0,0,0,.88.88A1,1,0,0,0,21,11.07,1,1,0,0,0,19.91,10.18Zm-4.86,0a1,1,0,0,0-.89.89,1,1,0,0,0,.89.88,1,1,0,0,0,1.1-.88h0A1,1,0,0,0,15.05,10.18Z" transform="translate(0 0)" fill="#0085ff"/></svg>