<svg xmlns="http://www.w3.org/2000/svg" viewBox="0 0 25 20.363"><defs><style>.a{fill:#0085ff;}</style></defs><g transform="translate(-279 -739.637)"><path class="a" d="M2.657,16.161v0l.883-2.66C1.191,11.857,0,9.847,0,7.526A6.957,6.957,0,0,1,2.6,2.184,9.656,9.656,0,0,1,8.848,0a10.247,10.247,0,0,1,5.81,1.77,7.394,7.394,0,0,1,3.119,4.444,7.789,7.789,0,0,0-.851-.052,7.292,7.292,0,0,0-7.527,7,6.615,6.615,0,0,0,.274,1.853c-.325.026-.588.037-.826.037a12.247,12.247,0,0,1-2.6-.343l-.5-.1L2.659,16.16Zm9.511-12.4a1.482,1.482,0,0,0-1.032.406.975.975,0,0,0-.3.7,1.242,1.242,0,0,0,1.328,1.107,1.048,1.048,0,0,0,1.108-1.107A1.048,1.048,0,0,0,12.168,3.762Zm-6.194,0A1.244,1.244,0,0,0,4.641,4.867,1.245,1.245,0,0,0,5.974,5.974,1.047,1.047,0,0,0,7.079,4.867,1.046,1.046,0,0,0,5.974,3.762Z" transform="translate(279 739.637)"/><path class="a" d="M12.609,13.725h0L10.182,12.4h-.005a11.167,11.167,0,0,1-2.65.443,8.176,8.176,0,0,1-5.342-1.882A5.95,5.95,0,0,1,0,6.42,5.949,5.949,0,0,1,2.184,1.883,8.174,8.174,0,0,1,7.526,0a8.264,8.264,0,0,1,5.249,1.883A5.934,5.934,0,0,1,15.042,6.42c0,1.785-1.1,3.594-3.1,5.095l.663,2.208ZM9.953,3.543a.955.955,0,0,0-.879.885.941.941,0,0,0,.879.884,1.011,1.011,0,0,0,1.108-.884A1.012,1.012,0,0,0,9.953,3.543Zm-4.866,0a.958.958,0,0,0-.884.885.944.944,0,0,0,.884.884,1,1,0,0,0,1.108-.884A1.012,1.012,0,0,0,5.087,3.543Z" transform="translate(288.958 746.275)"/></g></svg>