<svg id="图层_1" data-name="图层 1" xmlns="http://www.w3.org/2000/svg" viewBox="0 0 25.41 20.02"><title>weibo2</title><path d="M10.65,20h0c-.34,0-.68,0-1,0C5.53,19.67.53,18.3,0,13.61c0,0-.26-2.18,1.84-4.93,0,0,3.08-4.21,6.59-5.4a6,6,0,0,1,1.87-.36c1.37,0,2.09.82,2.09,2.38,0,.15-.06.3-.09.42-.09.39-.15.67,0,.81a.34.34,0,0,0,.27.1,2.42,2.42,0,0,0,.65-.13,9.14,9.14,0,0,1,3.18-.76,2.37,2.37,0,0,1,1.74.58A2.3,2.3,0,0,1,18.3,9a.47.47,0,0,0-.1.36c.06.17.26.28.61.35a4,4,0,0,1,2.59,1.91A3.62,3.62,0,0,1,21.2,15C19.62,18.29,14.7,20,10.65,20ZM10.58,8.9H10a10.55,10.55,0,0,0-5.32,1.61A4.36,4.36,0,0,0,2.43,14a4,4,0,0,0,2,3.29,9.11,9.11,0,0,0,5,1.33,4.78,4.78,0,0,0,.53,0c4.08-.18,7.53-2.7,7.53-5.49a3.59,3.59,0,0,0-2-3.1A9.7,9.7,0,0,0,10.58,8.9ZM9.07,17.57a5.36,5.36,0,0,1-2.53-.66,2.15,2.15,0,0,1-1.12-1.85,4.41,4.41,0,0,1,.8-2.9,4.13,4.13,0,0,1,2.9-1.44,5.17,5.17,0,0,1,.68,0,3.28,3.28,0,0,1,3,5.12A4.7,4.7,0,0,1,9.07,17.57Zm-.88-3.83H8a1.48,1.48,0,0,0-1.34,1.39,1,1,0,0,0,.35.73,1.35,1.35,0,0,0,.86.28h.2a1.48,1.48,0,0,0,1.41-1.32,1.15,1.15,0,0,0-1.22-1.09Zm2.18-.66a.62.62,0,0,0-.39.14A.61.61,0,0,0,9.8,14a.42.42,0,0,0,.36.2.59.59,0,0,0,.37-.13.63.63,0,0,0,.22-.79.42.42,0,0,0-.38-.2ZM24,9.49a.9.9,0,0,1-1-.82s0,0,0-.06a3,3,0,0,1,.2-.95v0h0a4.57,4.57,0,0,0-.31-3.23,5.44,5.44,0,0,0-4.5-2.46A1.71,1.71,0,0,0,18,2a5.38,5.38,0,0,1-.9.22,1,1,0,0,1-.7-.29,1,1,0,0,1-.3-.7,1,1,0,0,1,.73-.95l0,0h0l.06,0h0A10.59,10.59,0,0,1,18.83,0a7.07,7.07,0,0,1,1.52.16,6.69,6.69,0,0,1,4.29,3A6.68,6.68,0,0,1,25,8.66h0C24.87,9.43,24.48,9.49,24,9.49ZM20.85,8.07a.67.67,0,0,1-.69-.67,2.64,2.64,0,0,0-.31-1.94,1.55,1.55,0,0,0-1.28-.52,3.74,3.74,0,0,0-.81.1.68.68,0,0,1-.7-.65.69.69,0,0,1,.65-.71h.05a5.34,5.34,0,0,1,.69-.05,3.21,3.21,0,0,1,2.42.92,3.59,3.59,0,0,1,.65,2.89s0,0,0,0v0A.67.67,0,0,1,20.85,8.07Z" transform="translate(0 0)" fill="#0085ff"/></svg>