<svg xmlns="http://www.w3.org/2000/svg" viewBox="0 0 25.399 20.022"><defs><style>.a{fill:#0085ff;}</style></defs><g transform="translate(-324.002 -739.018)"><path class="a" d="M10.653,20.022h0c-.344,0-.683-.013-1.009-.038C5.537,19.666.533,18.3.013,13.613c0-.022-.256-2.185,1.837-4.937.03-.042,3.082-4.206,6.588-5.393a6.088,6.088,0,0,1,1.876-.361c1.364,0,2.085.823,2.085,2.379-.028.151-.061.3-.089.424-.087.386-.15.666-.038.805a.324.324,0,0,0,.269.1,2.4,2.4,0,0,0,.649-.13,9.135,9.135,0,0,1,3.178-.764,2.4,2.4,0,0,1,1.745.586,2.3,2.3,0,0,1,.194,2.718.421.421,0,0,0-.1.365c.053.162.258.279.609.346a4.02,4.02,0,0,1,2.59,1.908,3.662,3.662,0,0,1-.2,3.311C19.62,18.286,14.7,20.022,10.653,20.022ZM10.585,8.9c-.215,0-.428,0-.633.014A10.508,10.508,0,0,0,4.63,10.519a4.361,4.361,0,0,0-2.2,3.522,3.99,3.99,0,0,0,2.029,3.29,9.128,9.128,0,0,0,4.96,1.326c.171,0,.352,0,.535-.013,4.083-.182,7.533-2.7,7.533-5.494a3.59,3.59,0,0,0-2-3.1A9.766,9.766,0,0,0,10.585,8.9ZM9.071,17.569a5.326,5.326,0,0,1-2.527-.657,2.151,2.151,0,0,1-1.12-1.849,4.38,4.38,0,0,1,.8-2.9,4.117,4.117,0,0,1,2.9-1.445,6.15,6.15,0,0,1,.678-.04A3.289,3.289,0,0,1,12.785,15.8,4.729,4.729,0,0,1,9.071,17.569Zm-.883-3.829A1.825,1.825,0,0,0,8,13.748a1.476,1.476,0,0,0-1.339,1.394.93.93,0,0,0,.349.727,1.367,1.367,0,0,0,.866.285,1.682,1.682,0,0,0,.2-.012,1.492,1.492,0,0,0,1.408-1.321A1.159,1.159,0,0,0,8.188,13.739Zm2.182-.662a.658.658,0,0,0-.388.141A.6.6,0,0,0,9.806,14a.4.4,0,0,0,.36.2.628.628,0,0,0,.37-.131.639.639,0,0,0,.219-.784A.441.441,0,0,0,10.37,13.077ZM24.026,9.492a.915.915,0,0,1-1-.886,2.876,2.876,0,0,1,.2-.95l0-.013a.05.05,0,0,0,0-.011l0-.005,0-.005a4.583,4.583,0,0,0-.316-3.234,5.436,5.436,0,0,0-4.5-2.46,1.464,1.464,0,0,0-.445.047,4.97,4.97,0,0,1-.9.212,1,1,0,0,1-.706-.289.965.965,0,0,1-.292-.694,1,1,0,0,1,.726-.954.083.083,0,0,1,.025-.017.128.128,0,0,0,.04-.016A.164.164,0,0,1,16.927.2l.025,0h.007A10.092,10.092,0,0,1,18.833,0a6.843,6.843,0,0,1,1.519.162,6.693,6.693,0,0,1,4.288,3.014,6.713,6.713,0,0,1,.347,5.485h-.005C24.872,9.43,24.484,9.492,24.026,9.492ZM20.85,8.073a.691.691,0,0,1-.5-.205.651.651,0,0,1-.19-.47,2.633,2.633,0,0,0-.31-1.935,1.546,1.546,0,0,0-1.277-.523,3.842,3.842,0,0,0-.808.1.678.678,0,1,1,0-1.355,4.665,4.665,0,0,1,.689-.051,3.19,3.19,0,0,1,2.417.914,3.593,3.593,0,0,1,.656,2.889.213.213,0,0,1,0,.04l0,.032A.684.684,0,0,1,20.85,8.073Z" transform="translate(324 739.018)"/></g></svg>